<?xml version="1.0" encoding="UTF-8" standalone="no"?>
<!-- Created with Inkscape (http://www.inkscape.org/) -->

<svg
   xmlns:dc="http://purl.org/dc/elements/1.1/"
   xmlns:cc="http://creativecommons.org/ns#"
   xmlns:rdf="http://www.w3.org/1999/02/22-rdf-syntax-ns#"
   xmlns:svg="http://www.w3.org/2000/svg"
   xmlns="http://www.w3.org/2000/svg"
   xmlns:xlink="http://www.w3.org/1999/xlink"
   xmlns:sodipodi="http://sodipodi.sourceforge.net/DTD/sodipodi-0.dtd"
   xmlns:inkscape="http://www.inkscape.org/namespaces/inkscape"
   width="744.09448819"
   height="1052.3622047"
   id="svg2"
   version="1.1"
   inkscape:version="0.48.2 r9819"
   sodipodi:docname="Perso_Crunch_step2.svg">
  <defs
     id="defs4">
    <inkscape:path-effect
       effect="spiro"
       id="path-effect3824"
       is_visible="true" />
    <linearGradient
       id="linearGradient4067">
      <stop
         id="stop4075"
         offset="0"
         style="stop-color:#00ffa0;stop-opacity:0.4918415;" />
      <stop
         style="stop-color:#0b82f8;stop-opacity:0.60784316;"
         offset="0.5"
         id="stop3779" />
      <stop
         style="stop-color:#3e04f3;stop-opacity:0.75291377;"
         offset="1"
         id="stop4077" />
      <stop
         style="stop-color:#2a5fff;stop-opacity:0.01960784;"
         offset="1"
         id="stop4071" />
    </linearGradient>
    <inkscape:path-effect
       effect="spiro"
       id="path-effect4014"
       is_visible="true" />
    <inkscape:path-effect
       effect="spiro"
       id="path-effect3161"
       is_visible="true" />
    <inkscape:path-effect
       effect="spiro"
       id="path-effect3144"
       is_visible="true" />
    <inkscape:path-effect
       effect="skeletal"
       id="path-effect3075"
       is_visible="true"
       pattern="M 0,0 1,0"
       copytype="single_stretched"
       prop_scale="1"
       scale_y_rel="false"
       spacing="0"
       normal_offset="0"
       tang_offset="0"
       prop_units="false"
       vertical_pattern="false"
       fuse_tolerance="0" />
    <inkscape:path-effect
       effect="spiro"
       id="path-effect3073"
       is_visible="true" />
    <inkscape:path-effect
       effect="skeletal"
       id="path-effect3069"
       is_visible="true"
       pattern="M 0,0 1,0"
       copytype="single_stretched"
       prop_scale="1"
       scale_y_rel="false"
       spacing="0"
       normal_offset="0"
       tang_offset="0"
       prop_units="false"
       vertical_pattern="false"
       fuse_tolerance="0" />
    <inkscape:path-effect
       effect="spiro"
       id="path-effect3067"
       is_visible="true" />
    <inkscape:path-effect
       effect="spiro"
       id="path-effect3052"
       is_visible="true" />
    <inkscape:path-effect
       effect="spiro"
       id="path-effect3048"
       is_visible="true" />
    <inkscape:path-effect
       effect="spiro"
       id="path-effect3044"
       is_visible="true" />
    <inkscape:path-effect
       effect="spiro"
       id="path-effect3040"
       is_visible="true" />
    <inkscape:path-effect
       effect="spiro"
       id="path-effect3013"
       is_visible="true" />
    <inkscape:path-effect
       effect="spiro"
       id="path-effect3009"
       is_visible="true" />
    <radialGradient
       inkscape:collect="always"
       xlink:href="#linearGradient4067"
       id="radialGradient4109"
       cx="398.06256"
       cy="598.39935"
       fx="398.06256"
       fy="598.39935"
       r="253.59146"
       gradientTransform="matrix(1,0,0,0.95252006,-1.7725683,27.273347)"
       gradientUnits="userSpaceOnUse" />
  </defs>
  <sodipodi:namedview
     id="base"
     pagecolor="#ffffff"
     bordercolor="#666666"
     borderopacity="1.0"
     inkscape:pageopacity="0.0"
     inkscape:pageshadow="2"
     inkscape:zoom="0.38183766"
     inkscape:cx="491.86537"
     inkscape:cy="495.81508"
     inkscape:document-units="px"
     inkscape:current-layer="layer2"
     showgrid="false"
     inkscape:window-width="1190"
     inkscape:window-height="756"
     inkscape:window-x="330"
     inkscape:window-y="0"
     inkscape:window-maximized="0"
     inkscape:object-paths="true" />
  <metadata
     id="metadata7">
    <rdf:RDF>
      <cc:Work
         rdf:about="">
        <dc:format>image/svg+xml</dc:format>
        <dc:type
           rdf:resource="http://purl.org/dc/dcmitype/StillImage" />
        <dc:title></dc:title>
      </cc:Work>
    </rdf:RDF>
  </metadata>
  <g
     inkscape:label="Layer 1"
     inkscape:groupmode="layer"
     id="layer1">
    <path
       style="fill:#123dc6;fill-opacity:1;fill-rule:nonzero;stroke:#006477;stroke-width:1.20000005000000010;stroke-miterlimit:4;stroke-opacity:1;stroke-dasharray:none"
       d="m 375.32053,779.07979 c -6.96934,0 -12.57713,5.75789 -12.6024,12.90625 -0.1395,39.45902 14.72442,88.84456 -6.66733,122.15625 -0.8188,2.63707 -0.78758,3.5686 -0.70653,4.50126 0.70185,0.88194 1.53715,6.23328 7.77029,7.40347 5.01152,1.10676 17.63717,1.79894 22.34186,1.09527 6.48398,-0.42703 9.74529,-4.83722 15.76264,-5.65625 6.41122,-0.60614 8.80779,0.15878 17.34277,1.6875 8.78989,4.07288 6.03172,4.65053 10.71397,3.875 3.96254,-0.57824 4.1205,-4.14639 4.54766,-8.9375 4.32329,-3.96602 8.18575,1.5239 12.37118,9.8125 2.10376,-5.38321 -5.12185,-15.2569 -12.21702,-13.1875 -3.23048,-2.95484 -1.27159,-2.32823 -5.31845,-3.71875 -8.65008,0.39006 -1.58955,-0.17735 -11.87016,-0.21875 -6.78011,0.74501 -5.97987,1.48979 -12.13993,0.96875 -4.90806,0.18496 -17.9706,-7.49162 -16.33646,-9.76968 12.38985,-34.97683 -0.14482,-73.32204 -0.42822,-110.01157 -0.0553,-7.14825 -5.59452,-12.90625 -12.56387,-12.90625 z"
       id="rect3820"
       inkscape:connector-curvature="0"
       sodipodi:nodetypes="ssccccccccccccccss" />
  </g>
  <g
     inkscape:groupmode="layer"
     id="layer4"
     inkscape:label="Layer0" />
  <g
     inkscape:groupmode="layer"
     id="layer2"
     inkscape:label="Layer">
    <path
       style="fill:url(#radialGradient4109);fill-opacity:1;fill-rule:nonzero;stroke:#0e3697;stroke-width:3.4000001;stroke-linejoin:miter;stroke-miterlimit:4;stroke-opacity:1;stroke-dasharray:none"
       d="m 566.99839,741.29097 c 17.97139,12.2575 -48.1311,-18.68973 -47.80357,-0.87988 4.1358,11.71292 36.1725,42.46453 7.39071,24.89399 -10.95558,-6.85408 -35.1317,-25.13572 -17.65482,1.2304 4.69536,11.69344 15.32618,44.4511 -5.56002,23.4994 -9.55567,-8.70012 -39.69159,-31.72266 -32.2923,-3.58312 2.53195,12.34391 12.79968,46.47334 -4.0098,22.12897 -7.84864,-10.26654 -32.77324,-45.77528 -30.51737,-16.76677 0.28718,12.59764 3.67966,55.48718 -8.51283,28.53259 -5.88935,-11.50298 -23.5464,-47.31567 -26.50645,-18.37053 -1.96684,12.44647 -7.52087,55.21216 -14.7045,26.51368 -3.74076,-12.36971 -15.77497,-56.70949 -23.85581,-28.75804 -4.15763,11.89525 -17.70439,43.55854 -19.64825,14.03857 -1.47196,-12.83886 -1.93061,-49.11064 -14.87251,-23.05128 -6.21479,10.96172 -24.49044,51.01101 -21.13207,21.61835 0.84417,-12.89536 3.58146,-46.38819 -13.80554,-23.05848 -8.07221,9.67587 -36.83058,40.217 -28.27793,11.89635 3.13316,-12.53739 18.1708,-54.1956 -3.10246,-34.34537 -9.67018,8.07902 -38.95367,31.84774 -25.48161,5.50935 5.32145,-11.77647 19.65273,-42.17181 -4.82305,-26.43907 -10.95734,6.22251 -44.81995,20.44718 -26.86149,-3.06241 7.3387,-10.63703 28.98829,-33.74232 2.80376,-26.16826 -11.89232,4.166 -40.1442,9.07382 -18.27654,-10.85136 9.12008,-9.15572 28.26793,-28.3346 -0.17523,-22.20523 -12.44508,1.97559 -50.28255,10.00037 -25.20854,-5.69998 10.60833,-7.38013 42.03629,-31.07222 12.95577,-30.12008 -12.59783,-0.2783 -46.89759,0.15799 -19.42312,-10.81291 11.75562,-5.36734 41.13216,-11.75703 13.76318,-26.61931 -12.34569,-2.52327 -45.54084,-3.91899 -16.54897,-17.586 12.52508,-3.18203 49.46717,-6.68593 21.90641,-16.01266 -11.69674,-4.68712 -48.37723,-22.46924 -18.79977,-23.08674 12.89197,-0.89446 47.86333,-4.092 22.41084,-18.19001 -10.67185,-6.70034 -50.54765,-29.07451 -21.33526,-24.40084 12.8445,1.42187 58.20162,7.78037 35.67546,-10.63579 -9.30396,-8.49819 -33.09502,-33.39928 -5.1866,-23.58463 12.3842,3.69249 43.01398,18.05664 24.13816,-4.08577 -7.63704,-10.0229 -33.67057,-50.79269 -5.8418,-31.20278 11.52586,5.84443 47.61159,24.3534 32.99279,-0.80359 -5.72464,-11.22547 -19.24905,-42.89832 3.43117,-23.90319 10.29707,7.80854 36.74133,28.5441 26.84941,1.18112 -3.62826,-12.06726 -11.27991,-45.64598 7.64411,-22.9064 8.73733,9.52166 31.05414,34.6458 26.20704,5.95628 -1.41526,-12.52118 -5.77667,-49.75496 8.78293,-24.0018 6.89675,10.92876 27.19726,42.46239 27.55077,13.36844 0.84323,-12.57267 0.52845,-52.35569 10.25566,-24.41668 4.83452,11.98459 21.85005,49.00511 27.39281,20.44183 3.07461,-12.22005 13.72856,-44.9702 18.31075,-15.74332 2.61689,12.65523 8.88858,45.6693 19.44242,18.55474 5.20718,-11.47468 30.73007,-47.45303 18.70625,-12.2208 0.31516,12.91912 2.71249,46.52248 17.93822,21.72813 7.17238,-10.3605 28.65455,-45.05697 22.67497,-16.08368 -1.9967,12.76778 -7.72524,53.65859 11.68301,31.98135 8.90705,-8.91333 44.74994,-35.80589 28.03622,-10.48722 -4.24439,12.20607 -20.036,50.12765 2.93097,32.26426 10.35545,-7.17967 39.92622,-24.83322 24.14745,0.19151 -6.35566,11.25205 -25.47519,43.77591 0.31233,30.30049 11.47101,-5.21525 48.66848,-25.08321 28.67494,-3.27804 -8.26265,9.93638 -32.99219,39.66635 -5.21296,31.01203 12.21789,-3.08321 38.32792,-5.68513 14.76222,12.19963 -9.90408,8.30134 -29.78775,24.51875 4.89475,20.96368 12.57206,-0.85207 33.57652,-0.83992 7.19608,12.54961 -11.22717,6.3995 -35.0305,17.61638 -5.9817,19.27482 15.0904,9.23647 100.14614,-2.33168 41.39327,22.39572 -6.44198,4.48102 -63.86183,14.93847 -35.57599,21.75713 -130.35979,89.88938 -179.78715,8.2437 -216.31272,44.23818 5.81367,8.98295 187.00224,82.79513 190.04675,93.20142 z"
       id="path2995"
       inkscape:connector-curvature="0"
       sodipodi:nodetypes="cccccccccccccccccccccccccccccccccccccccccccccccccccccccccccccccccc" />
    <path
       style="fill:#faffff;fill-opacity:1;stroke:#001072;stroke-width:0.99999994;stroke-opacity:1"
       d="m 449.70274,468.70739 c -0.7853,0.009 -1.61003,0.0711 -2.40523,0.12479 -25.44615,1.72023 -41.28769,25.53024 -40.80238,53.18401 l 0.6428,36.62787 c 20.03811,-4.92413 26.13861,-10.2023 48.10136,-10.2023 14.13869,0 29.84629,2.9957 40.74699,7.60581 l -2.58107,-34.03138 -0.36305,0 c 0.2316,-2.05078 0.36305,-4.13899 0.36305,-6.24225 0,-26.79558 -19.35814,-47.37092 -43.70247,-47.06655 z"
       id="rect3077"
       inkscape:connector-curvature="0"
       sodipodi:nodetypes="ccscscccsc" />
    <path
       style="fill:none;stroke:#00247f;stroke-width:4.00299977999999967;stroke-linecap:butt;stroke-linejoin:miter;stroke-miterlimit:4;stroke-opacity:1;stroke-dasharray:none"
       inkscape:path-effect="#path-effect3144"
       inkscape:original-d="m 371.52773,397.31239 c -8.84771,-50.75375 -2.47241,-92.30544 -25.97389,-139.90266 -9.79835,-14.96871 -10.9438,-45.79041 -17.52177,-62.20487 -10.67666,-31.44144 -31.31995,-61.51775 -62.74972,-75.17479 -19.31486,-8.31958 -43.16001,-11.58456 -62.33475,-1.32321 -27.47651,17.36109 -32.39064,62.90391 -6.65394,83.86462 13.44204,11.31899 34.694,10.24604 46.88033,-2.42759 9.32243,-8.09369 9.59296,-22.4459 -0.39124,-30.25114"
       id="path3142"
       d="M 371.52773,397.31239 345.55384,257.40973 c -3.60032,-21.28057 -9.4855,-42.17381 -17.52177,-62.20487 -6.23633,-15.54455 -13.82907,-30.67104 -24.08655,-43.91147 -10.25748,-13.24043 -23.30856,-24.57297 -38.66317,-31.26332 -19.54376,-8.51566 -42.44722,-9.00184 -62.33475,-1.32321 -8.4112,2.86123 -15.95147,8.23089 -21.40603,15.24393 -5.45456,7.01304 -8.80291,15.64307 -9.50561,24.49977 -0.70271,8.8567 1.24288,17.90677 5.52331,25.69219 4.28043,7.78543 10.87961,14.27694 18.73439,18.42873 7.26231,3.83863 15.57137,5.67274 23.77477,5.24794 8.20341,-0.42479 16.27858,-3.10731 23.10556,-7.67553 l -0.39124,-30.25114"
       inkscape:connector-curvature="0"
       sodipodi:nodetypes="cccccccc" />
    <path
       style="fill:none;stroke:#00247f;stroke-width:3.20000004999999987;stroke-linecap:butt;stroke-linejoin:miter;stroke-miterlimit:4;stroke-opacity:1;stroke-dasharray:none"
       inkscape:path-effect="#path-effect4014"
       inkscape:original-d="m 378.75778,394.24093 c 1.77208,-81.29871 5.52582,-188.99277 19.19505,-269.75612 6.04392,-37.748848 -1.12141,-51.261105 26.84536,-71.444516 20.52623,-15.502599 50.37803,-15.512288 67.10394,7.930512 18.21655,23.458005 22.65664,65.180964 3.51915,89.801114 -12.37727,16.47696 -39.5153,12.28157 -44.39105,-11.05843 -2.4484,-11.45966 -7.67194,-29.3647 2.92642,-36.53755 2.8952,-1.10622 5.95021,-0.63415 8.64407,0.93917"
       id="path4012"
       d="m 378.75778,394.24093 c 7.94905,-89.7994 14.34867,-179.73595 19.19505,-269.75612 0.71075,-13.20201 1.41098,-26.5456 5.10924,-39.238955 3.69825,-12.693355 10.73551,-24.87174 21.73612,-32.205561 10.02498,-6.683397 22.71754,-8.818039 34.62627,-6.98766 11.90873,1.83038 23.04576,7.421034 32.47767,14.918172 6.98391,5.551292 13.14375,12.196137 17.78474,19.815384 4.641,7.619247 7.73907,16.22771 8.59058,25.1084 0.85151,8.8807 -0.58784,18.02654 -4.51103,26.03906 -3.9232,8.01251 -10.37161,14.83644 -18.34514,18.83827 -7.47419,3.75121 -16.25672,4.95026 -24.39608,3.03038 -8.13936,-1.91987 -15.54485,-7.00845 -19.99497,-14.08881 -3.48469,-5.54431 -5.12429,-12.22695 -4.60148,-18.75452 0.52282,-6.52757 3.20517,-12.86404 7.5279,-17.78303 l 8.64407,0.93917"
       inkscape:connector-curvature="0"
       sodipodi:nodetypes="cccccccc" />
    <path
       sodipodi:type="arc"
       style="fill:#2309de;fill-opacity:1;fill-rule:nonzero;stroke:#00247f;stroke-width:1.37402141;stroke-linejoin:miter;stroke-miterlimit:4;stroke-opacity:1;stroke-dasharray:none"
       id="path4020"
       sodipodi:cx="464.97061"
       sodipodi:cy="554.70642"
       sodipodi:rx="14.041519"
       sodipodi:ry="22.07345"
       d="m 479.01213,554.70642 a 14.041519,22.07345 0 1 1 -28.08304,0 14.041519,22.07345 0 1 1 28.08304,0 z"
       transform="matrix(1.2834615,0,0,1.6507841,-126.74107,-404.1079)" />
    <path
       style="fill:#212178;fill-opacity:1;fill-rule:nonzero;stroke:none"
       d="m 573.32705,903.38188 c 23.06772,26.76601 42.9394,57.96326 74.1929,76.08872 13.16944,7.40025 28.54347,10.36093 43.50833,9.25596 24.86725,3.9353 49.95493,-0.6525 74.86449,-1.3323 5.6173,-2.4165 17.52036,3.55919 6.33998,5.45837 -18.93501,1.91991 -37.82899,5.00091 -56.93595,5.1169 -30.65095,0.74575 -62.73527,-5.26709 -88.01112,-23.46825 -9.26078,-8.08387 -17.68732,-17.12054 -26.38177,-25.82026 -10.71092,-11.53923 -21.49966,-23.94381 -26.56636,-39.10589 -0.55809,-2.0195 -0.92679,-4.09732 -1.0105,-6.19325 z"
       id="path3775"
       inkscape:connector-curvature="0" />
    <path
       style="fill:#0078a6;fill-opacity:1;fill-rule:nonzero;stroke:none"
       id="path3794"
       d="m 355.18715,525.24143 c 2.8724,-6.73968 5.8216,-13.40398 8.68755,-20.15939 2.99599,-7.19791 6.28958,-14.03957 9.79087,-20.6634 3.43178,-5.90151 7.71028,-10.35259 11.84082,-14.98514 3.87061,-5.09484 8.61984,-7.918 13.08899,-11.46188 4.84155,-3.74806 9.7517,-7.2802 14.63269,-10.90369 3.21383,-2.14446 6.33874,-4.57245 9.60204,-6.53847 3.10149,-1.79188 6.38714,-2.32877 9.66719,-2.62605 8.27617,-0.43837 16.56107,-0.20745 24.84124,-0.14068 0,0 -17.28674,6.38834 -17.28674,6.38834 l 0,0 c -9.94948,-8e-4 24.23262,-0.0164 11.31671,-0.0146 -0.52028,1.2e-4 -1.04054,0.009 -1.56081,0.0146 -3.21161,0.0829 -6.45119,0.20343 -9.58308,1.4263 -3.41002,1.54973 -6.46348,4.28822 -9.80667,6.09523 -5.02022,3.27147 -9.98645,6.79494 -14.85504,10.56641 -0.642,0.55451 -3.98704,3.47057 -4.69316,3.97668 -2.8621,2.05141 -5.87198,3.70687 -8.26852,7.04919 -4.10753,4.2129 -8.03696,8.87601 -11.72569,13.92246 -3.5515,6.46747 -7.05069,12.95034 -9.97416,20.15483 -2.57432,6.2501 -5.19278,12.47236 -7.54051,18.92877 0,0 -18.17372,-1.03023 -18.17372,-1.03023 z"
       inkscape:connector-curvature="0" />
    <path
       sodipodi:type="star"
       style="fill:#fdfeff;fill-opacity:1;fill-rule:nonzero;stroke:none"
       id="path3883"
       sodipodi:sides="7"
       sodipodi:cx="462.5657"
       sodipodi:cy="510.9017"
       sodipodi:r1="9.3054399"
       sodipodi:r2="3.7221761"
       sodipodi:arg1="0.88506682"
       sodipodi:arg2="1.3338658"
       inkscape:flatsided="false"
       inkscape:rounded="0"
       inkscape:randomized="0"
       d="m 468.45826,518.10372 -5.01889,-3.58383 -2.83048,5.47918 -0.32728,-6.1584 -6.04857,1.20325 4.61078,-4.09558 -4.71196,-3.97874 6.07682,1.0513 0.17285,-6.16467 2.9669,5.40653 4.9275,-3.70847 -2.37716,5.69053 5.97164,1.54028 -5.93117,1.68945 z"
       transform="translate(15.85545,3.409487)" />
    <path
       sodipodi:nodetypes="ssccccccccccccccss"
       inkscape:connector-curvature="0"
       id="path3885"
       d="m 344.19419,771.27833 c -6.83544,0 -12.45262,6.23376 -12.62283,13.9729 -0.93957,42.72018 12.63406,96.18726 -9.02435,132.25204 -0.85672,2.85502 -0.84506,3.86353 -0.78452,4.87327 0.67041,0.95483 1.38079,6.74844 7.47035,8.01534 4.89275,1.19823 17.26172,1.94762 21.89031,1.1858 6.3681,-0.46232 9.65646,-5.237 15.57485,-6.12372 6.30039,-0.65625 8.63532,0.17188 16.97523,1.82697 8.53815,4.40948 5.82121,5.03487 10.42929,4.19524 3.89817,-0.62602 4.12567,-4.48907 4.6421,-9.67615 4.3209,-4.29381 7.99747,1.64985 11.93386,10.62347 2.17285,-5.82811 -4.71304,-16.51784 -11.71401,-14.2774 -3.1083,-3.19905 -1.1998,-2.52063 -5.14059,-4.02609 -8.49183,0.42231 -1.55541,-0.192 -11.63765,-0.23682 -6.66499,0.80657 -5.89529,1.61291 -11.92639,1.04881 -4.81751,0.20025 -17.47289,-8.11078 -15.82381,-10.57712 12.86335,-37.86753 1.3496,-79.38185 1.81807,-119.10364 0.0911,-7.73902 -5.22447,-13.9729 -12.05991,-13.9729 z"
       style="fill:#3d4aff;fill-opacity:0.98230088;fill-rule:nonzero;stroke:#006477;stroke-width:1.20000052;stroke-miterlimit:4;stroke-opacity:1;stroke-dasharray:none" />
  </g>
  <g
     inkscape:groupmode="layer"
     id="layer3"
     inkscape:label="Layer3" />
</svg>
