<?xml version="1.0" encoding="UTF-8" standalone="no"?>
<!-- Created with Inkscape (http://www.inkscape.org/) -->

<svg
   xmlns:dc="http://purl.org/dc/elements/1.1/"
   xmlns:cc="http://creativecommons.org/ns#"
   xmlns:rdf="http://www.w3.org/1999/02/22-rdf-syntax-ns#"
   xmlns:svg="http://www.w3.org/2000/svg"
   xmlns="http://www.w3.org/2000/svg"
   xmlns:sodipodi="http://sodipodi.sourceforge.net/DTD/sodipodi-0.dtd"
   xmlns:inkscape="http://www.inkscape.org/namespaces/inkscape"
   width="744.09448819"
   height="1052.3622047"
   id="svg2"
   version="1.1"
   inkscape:version="0.48.2 r9819"
   sodipodi:docname="New document 1">
  <defs
     id="defs4">
    <inkscape:perspective
       sodipodi:type="inkscape:persp3d"
       inkscape:vp_x="0 : 526.18109 : 1"
       inkscape:vp_y="0 : 1000 : 0"
       inkscape:vp_z="744.09448 : 526.18109 : 1"
       inkscape:persp3d-origin="372.04724 : 350.78739 : 1"
       id="perspective2987" />
  </defs>
  <sodipodi:namedview
     id="base"
     pagecolor="#ffffff"
     bordercolor="#666666"
     borderopacity="1.0"
     inkscape:pageopacity="0.0"
     inkscape:pageshadow="2"
     inkscape:zoom="1.4"
     inkscape:cx="277.91401"
     inkscape:cy="570.84866"
     inkscape:document-units="px"
     inkscape:current-layer="layer1"
     showgrid="false"
     inkscape:window-width="1271"
     inkscape:window-height="702"
     inkscape:window-x="9"
     inkscape:window-y="0"
     inkscape:window-maximized="0" />
  <metadata
     id="metadata7">
    <rdf:RDF>
      <cc:Work
         rdf:about="">
        <dc:format>image/svg+xml</dc:format>
        <dc:type
           rdf:resource="http://purl.org/dc/dcmitype/StillImage" />
        <dc:title></dc:title>
      </cc:Work>
    </rdf:RDF>
  </metadata>
  <g
     inkscape:label="Layer 1"
     inkscape:groupmode="layer"
     id="layer1">
    <path
       style="fill:#c83737;fill-opacity:1;fill-rule:nonzero;stroke:#000105;stroke-width:1;stroke-miterlimit:4;stroke-opacity:1;stroke-dasharray:none"
       d="M 507.09656,533.1438 C 540.0526,651.18445 494.74652,639.65704 362.43299,638.42374 281.03205,639.85231 278.85301,644.3216 227.76943,635.28666 162.42448,623.72937 46.767987,594.06985 66.582353,561.96289 191.3063,468.50091 245.11325,458.90522 241.00443,366.71524 c 36.83467,-16.66547 57.73098,35.76454 62.36332,35.03949 27.48949,-0.0108 93.00072,3.96628 131.92239,36.10914 60.68666,42.85714 46.80642,33.51034 71.80642,95.27993 z"
       id="path2985"
       inkscape:connector-curvature="0"
       sodipodi:nodetypes="ccsccccc" />
    <path
       style="fill:#ffcbcb;fill-opacity:1;fill-rule:nonzero;stroke:#000000;stroke-width:1;stroke-miterlimit:4;stroke-opacity:1"
       d="m 328.57143,630.93361 c 122.85714,4.93112 103.91335,14.39541 -53.23712,9.05547 -8.49836,0.58795 -23.8939,1.76545 -103.19145,-15.48404 -29.25528,-7.14286 -64.61242,-20.57016 -76.762883,-23.80167 -12.15048,-3.2315 -33.205802,-24.88618 -32.52284,-29.76976 4.285714,-34.93111 182.701373,-97.91278 176.094263,-206.91262 36.67575,-16.62888 57.50761,27.62689 65.33431,37.62689 2.85688,3.65018 69.66288,-4.31053 53.81189,11.74568 -55.13671,-11.80094 -67.21614,-3.87067 -153.55869,75.13289 -49.91398,48.28926 -56.23394,47.65182 -61.99457,105.14402 150.66795,40.34935 152.6095,19.54263 155.64712,20.35051 102.86475,-54.62563 11.08776,-7.19494 30.37997,16.91263 z"
       id="path3792"
       inkscape:connector-curvature="0"
       sodipodi:nodetypes="cccccccccccc" />
    <path
       style="fill:#ff8383;fill-opacity:1;fill-rule:nonzero;stroke:#000000;stroke-width:1;stroke-miterlimit:4;stroke-opacity:1"
       d="m 97.500004,558.07645 c 12.957856,-5 30.433346,-20.28209 28.928566,-13.92857 L 120,571.29074 c -1.50478,6.35351 -0.97072,17.5 -7.5,17.5 -26.244552,-3.39533 -23.566323,-23.16896 -14.999996,-30.71429 z"
       id="rect3795"
       inkscape:connector-curvature="0"
       sodipodi:nodetypes="csscc" />
    <path
       style="fill:#fff9f9;fill-opacity:1;fill-rule:nonzero;stroke:#000000;stroke-width:1;stroke-miterlimit:4;stroke-opacity:1"
       d="m 259.64285,390.21932 5,-12.85714 c 2.36652,-6.08533 11.78573,-15.72619 11.78571,11.78572 l 0,6.42857 c -1e-5,6.52927 41.79967,7.42161 0.35715,15.35713 L 138.92856,537.36218 C 128.653,529.17689 256.53383,424.25882 249.99999,406.29075 l -5.71428,-15.71428 c -6.09533,-16.76217 12.99062,5.72817 15.35714,-0.35715 z"
       id="rect3798"
       inkscape:connector-curvature="0"
       sodipodi:nodetypes="ssssccsss" />
  </g>
</svg>
