<?xml version="1.0" encoding="UTF-8" standalone="no"?>
<!-- Created with Inkscape (http://www.inkscape.org/) -->

<svg
   xmlns:dc="http://purl.org/dc/elements/1.1/"
   xmlns:cc="http://creativecommons.org/ns#"
   xmlns:rdf="http://www.w3.org/1999/02/22-rdf-syntax-ns#"
   xmlns:svg="http://www.w3.org/2000/svg"
   xmlns="http://www.w3.org/2000/svg"
   xmlns:sodipodi="http://sodipodi.sourceforge.net/DTD/sodipodi-0.dtd"
   xmlns:inkscape="http://www.inkscape.org/namespaces/inkscape"
   width="343pt"
   height="340pt"
   id="svg6668"
   version="1.1"
   inkscape:version="0.48.2 r9819"
   inkscape:export-filename="/Users/margot/Desktop/Crunch/assets/Tiles/6464 Tiles/TH2.png"
   inkscape:export-xdpi="90"
   inkscape:export-ydpi="90"
   sodipodi:docname="Button_High.svg">
  <defs
     id="defs6670">
    <inkscape:perspective
       sodipodi:type="inkscape:persp3d"
       inkscape:vp_x="0 : 212.5 : 1"
       inkscape:vp_y="0 : 1000 : 0"
       inkscape:vp_z="428.75 : 212.5 : 1"
       inkscape:persp3d-origin="214.375 : 141.66667 : 1"
       id="perspective3138" />
    <filter
       id="filter6683"
       y="-0.15"
       height="1.3"
       x="-0.15"
       width="1.3"
       inkscape:menu-tooltip="Aquarelle paper effect which can be used for pictures as for objects"
       inkscape:menu="Textures"
       inkscape:label="Rough paper"
       color-interpolation-filters="sRGB">
      <feTurbulence
         id="feTurbulence6685"
         type="fractalNoise"
         baseFrequency="0.04"
         numOctaves="5"
         seed="0"
         result="result4" />
      <feDisplacementMap
         id="feDisplacementMap6687"
         in2="result4"
         in="SourceGraphic"
         yChannelSelector="G"
         xChannelSelector="R"
         scale="10"
         result="result3" />
      <feDiffuseLighting
         id="feDiffuseLighting6689"
         lighting-color="rgb(233,230,215)"
         diffuseConstant="1"
         surfaceScale="2"
         result="result1"
         in="result4">
        <feDistantLight
           id="feDistantLight6691"
           azimuth="235"
           elevation="40" />
      </feDiffuseLighting>
      <feComposite
         id="feComposite6693"
         in2="result1"
         operator="in"
         in="result3"
         result="result2" />
      <feComposite
         id="feComposite6695"
         in2="result1"
         result="result5"
         operator="arithmetic"
         k1="1.7" />
      <feBlend
         id="feBlend6697"
         in2="result3"
         in="result5"
         mode="normal" />
    </filter>
    <filter
       id="filter6699"
       y="-0.15"
       height="1.3"
       x="-0.15"
       width="1.3"
       inkscape:menu-tooltip="Aquarelle paper effect which can be used for pictures as for objects"
       inkscape:menu="Textures"
       inkscape:label="Rough paper"
       color-interpolation-filters="sRGB">
      <feTurbulence
         id="feTurbulence6701"
         type="fractalNoise"
         baseFrequency="0.04"
         numOctaves="5"
         seed="0"
         result="result4" />
      <feDisplacementMap
         id="feDisplacementMap6703"
         in2="result4"
         in="SourceGraphic"
         yChannelSelector="G"
         xChannelSelector="R"
         scale="10"
         result="result3" />
      <feDiffuseLighting
         id="feDiffuseLighting6705"
         lighting-color="rgb(233,230,215)"
         diffuseConstant="1"
         surfaceScale="2"
         result="result1"
         in="result4">
        <feDistantLight
           id="feDistantLight6707"
           azimuth="235"
           elevation="40" />
      </feDiffuseLighting>
      <feComposite
         id="feComposite6709"
         in2="result1"
         operator="in"
         in="result3"
         result="result2" />
      <feComposite
         id="feComposite6711"
         in2="result1"
         result="result5"
         operator="arithmetic"
         k1="1.7" />
      <feBlend
         id="feBlend6713"
         in2="result3"
         in="result5"
         mode="normal" />
    </filter>
    <pattern
       patternUnits="userSpaceOnUse"
       width="102.82308"
       height="126.92488"
       patternTransform="translate(-246.54994,84.228288)"
       id="pattern7986">
      <path
         transform="matrix(1.1145503,0,0,0.61032864,256.06019,-131.3527)"
         d="m -225,230.3125 a 1.25,14.0625 0 1 1 -2.5,0 1.25,14.0625 0 1 1 2.5,0 z"
         sodipodi:ry="14.0625"
         sodipodi:rx="1.25"
         sodipodi:cy="230.3125"
         sodipodi:cx="-226.25"
         id="path7231"
         style="fill:#217821;fill-opacity:1;fill-rule:nonzero;stroke:none"
         sodipodi:type="arc" />
      <path
         transform="matrix(1.1145503,0,0,0.61032864,251.06019,-120.1027)"
         d="m -202.5,270.625 a 1.5625,31.875 0 1 1 -3.125,0 1.5625,31.875 0 1 1 3.125,0 z"
         sodipodi:ry="31.875"
         sodipodi:rx="1.5625"
         sodipodi:cy="270.625"
         sodipodi:cx="-204.0625"
         id="path7236"
         style="fill:#217821;fill-opacity:1;fill-rule:nonzero;stroke:none"
         sodipodi:type="arc" />
      <path
         transform="matrix(1.1145503,0,0,0.61032864,274.18519,-113.2277)"
         d="m -182.5,230 a 1.25,26.875 0 1 1 -2.5,0 1.25,26.875 0 1 1 2.5,0 z"
         sodipodi:ry="26.875"
         sodipodi:rx="1.25"
         sodipodi:cy="230"
         sodipodi:cx="-183.75"
         id="path7238"
         style="fill:#217821;fill-opacity:1;fill-rule:nonzero;stroke:none"
         sodipodi:type="arc" />
      <path
         transform="matrix(1.1145503,0,0,0.61032864,272.93519,-101.3527)"
         d="m -207.5,195.625 a 1.875,26.25 0 1 1 -3.75,0 1.875,26.25 0 1 1 3.75,0 z"
         sodipodi:ry="26.25"
         sodipodi:rx="1.875"
         sodipodi:cy="195.625"
         sodipodi:cx="-209.375"
         id="path7240"
         style="fill:#217821;fill-opacity:1;fill-rule:nonzero;stroke:none"
         sodipodi:type="arc" />
      <path
         transform="matrix(1.1145503,0,0,0.61032864,274.18519,-109.4777)"
         d="m -171.25,290.3125 a 3.4375,2.8125 0 1 1 -6.875,0 3.4375,2.8125 0 1 1 6.875,0 z"
         sodipodi:ry="2.8125"
         sodipodi:rx="3.4375"
         sodipodi:cy="290.3125"
         sodipodi:cx="-174.6875"
         id="path7242"
         style="fill:#217821;fill-opacity:1;fill-rule:nonzero;stroke:none"
         sodipodi:type="arc" />
      <path
         transform="matrix(1.1145503,0,0,0.61032864,274.18519,-109.4777)"
         d="m -153.75,233.75 a 1.5625,40 0 1 1 -3.125,0 1.5625,40 0 1 1 3.125,0 z"
         sodipodi:ry="40"
         sodipodi:rx="1.5625"
         sodipodi:cy="233.75"
         sodipodi:cx="-155.3125"
         id="path7244"
         style="fill:#217821;fill-opacity:1;fill-rule:nonzero;stroke:none"
         sodipodi:type="arc" />
      <path
         transform="matrix(1.1145503,0,0,0.61032864,274.18519,-109.4777)"
         d="m -195,229.375 a 4.375,1.875 0 1 1 -8.75,0 4.375,1.875 0 1 1 8.75,0 z"
         sodipodi:ry="1.875"
         sodipodi:rx="4.375"
         sodipodi:cy="229.375"
         sodipodi:cx="-199.375"
         id="path7248"
         style="fill:#ccff00;fill-opacity:1;fill-rule:nonzero;stroke:none"
         sodipodi:type="arc" />
      <path
         transform="matrix(1.1145503,0,0,0.61032864,274.18519,-109.4777)"
         d="m -170,290.3125 a 4.6875,2.8125 0 1 1 -9.375,0 4.6875,2.8125 0 1 1 9.375,0 z"
         sodipodi:ry="2.8125"
         sodipodi:rx="4.6875"
         sodipodi:cy="290.3125"
         sodipodi:cx="-174.6875"
         id="path7250"
         style="fill:#ccff00;fill-opacity:1;fill-rule:nonzero;stroke:none"
         sodipodi:type="arc" />
      <path
         transform="matrix(1.1145503,0,0,0.61032864,274.18519,-109.4777)"
         d="m -179.375,182.1875 a 5.3125,2.8125 0 1 1 -10.625,0 5.3125,2.8125 0 1 1 10.625,0 z"
         sodipodi:ry="2.8125"
         sodipodi:rx="5.3125"
         sodipodi:cy="182.1875"
         sodipodi:cx="-184.6875"
         id="path7252"
         style="fill:#ccff00;fill-opacity:1;fill-rule:nonzero;stroke:none"
         sodipodi:type="arc" />
      <path
         transform="matrix(1.1145503,0,0,0.61032864,274.18519,-109.4777)"
         d="m -163.125,220.9375 a 4.0625,2.8125 0 1 1 -8.125,0 4.0625,2.8125 0 1 1 8.125,0 z"
         sodipodi:ry="2.8125"
         sodipodi:rx="4.0625"
         sodipodi:cy="220.9375"
         sodipodi:cx="-167.1875"
         id="path7254"
         style="fill:#ccff00;fill-opacity:1;fill-rule:nonzero;stroke:none"
         sodipodi:type="arc" />
      <path
         transform="matrix(1.1145503,0,0,0.61032864,274.18519,-109.4777)"
         d="m -229.375,263.125 a 4.6875,1.875 0 1 1 -9.375,0 4.6875,1.875 0 1 1 9.375,0 z"
         sodipodi:ry="1.875"
         sodipodi:rx="4.6875"
         sodipodi:cy="263.125"
         sodipodi:cx="-234.0625"
         id="path7256"
         style="fill:#ccff00;fill-opacity:1;fill-rule:nonzero;stroke:none"
         sodipodi:type="arc" />
      <path
         transform="matrix(1.1145503,0,0,0.61032864,269.18519,-105.7277)"
         d="m -212.5,185.3125 a 7.5,1.5625 0 1 1 -15,0 7.5,1.5625 0 1 1 15,0 z"
         sodipodi:ry="1.5625"
         sodipodi:rx="7.5"
         sodipodi:cy="185.3125"
         sodipodi:cx="-220"
         id="path7258"
         style="fill:#ccff00;fill-opacity:1;fill-rule:nonzero;stroke:none"
         sodipodi:type="arc" />
      <path
         transform="matrix(1.1145503,0,0,0.61032864,289.18519,-116.9777)"
         d="m -187.5,267.1875 a 2.5,2.1875 0 1 1 -5,0 2.5,2.1875 0 1 1 5,0 z"
         sodipodi:ry="2.1875"
         sodipodi:rx="2.5"
         sodipodi:cy="267.1875"
         sodipodi:cx="-190"
         id="path7260"
         style="fill:#ccff00;fill-opacity:1;fill-rule:nonzero;stroke:none"
         sodipodi:type="arc" />
      <path
         transform="matrix(1.1145503,0,0,0.61032864,274.18519,-109.4777)"
         d="m -233.125,220.625 a 4.0625,1.875 0 1 1 -8.125,0 4.0625,1.875 0 1 1 8.125,0 z"
         sodipodi:ry="1.875"
         sodipodi:rx="4.0625"
         sodipodi:cy="220.625"
         sodipodi:cx="-237.1875"
         id="path7264"
         style="fill:#ccff00;fill-opacity:1;fill-rule:nonzero;stroke:none"
         sodipodi:type="arc" />
      <path
         transform="translate(237.17494,-90.478288)"
         d="m -194.375,145.625 a 5,3.125 0 1 1 -10,0 5,3.125 0 1 1 10,0 z"
         sodipodi:ry="3.125"
         sodipodi:rx="5"
         sodipodi:cy="145.625"
         sodipodi:cx="-199.375"
         id="path7807"
         style="fill:#ddff55;fill-opacity:1;fill-rule:nonzero;stroke:none"
         sodipodi:type="arc" />
      <path
         sodipodi:type="arc"
         style="fill:#217821;fill-opacity:1;fill-rule:nonzero;stroke:none"
         id="path7919"
         sodipodi:cx="-226.25"
         sodipodi:cy="230.3125"
         sodipodi:rx="1.25"
         sodipodi:ry="14.0625"
         d="m -225,230.3125 a 1.25,14.0625 0 1 1 -2.5,0 1.25,14.0625 0 1 1 2.5,0 z"
         transform="matrix(1.1145503,0,0,0.61032864,253.56019,-73.8527)" />
      <path
         sodipodi:type="arc"
         style="fill:#217821;fill-opacity:1;fill-rule:nonzero;stroke:none"
         id="path7921"
         sodipodi:cx="-204.0625"
         sodipodi:cy="270.625"
         sodipodi:rx="1.5625"
         sodipodi:ry="31.875"
         d="m -202.5,270.625 a 1.5625,31.875 0 1 1 -3.125,0 1.5625,31.875 0 1 1 3.125,0 z"
         transform="matrix(1.1145503,0,0,0.61032864,248.56019,-62.6027)" />
      <path
         sodipodi:type="arc"
         style="fill:#217821;fill-opacity:1;fill-rule:nonzero;stroke:none"
         id="path7923"
         sodipodi:cx="-183.75"
         sodipodi:cy="230"
         sodipodi:rx="1.25"
         sodipodi:ry="26.875"
         d="m -182.5,230 a 1.25,26.875 0 1 1 -2.5,0 1.25,26.875 0 1 1 2.5,0 z"
         transform="matrix(1.1145503,0,0,0.61032864,271.68519,-55.7277)" />
      <path
         sodipodi:type="arc"
         style="fill:#217821;fill-opacity:1;fill-rule:nonzero;stroke:none"
         id="path7925"
         sodipodi:cx="-209.375"
         sodipodi:cy="195.625"
         sodipodi:rx="1.875"
         sodipodi:ry="26.25"
         d="m -207.5,195.625 a 1.875,26.25 0 1 1 -3.75,0 1.875,26.25 0 1 1 3.75,0 z"
         transform="matrix(1.1145503,0,0,0.61032864,270.43519,-43.8527)" />
      <path
         sodipodi:type="arc"
         style="fill:#217821;fill-opacity:1;fill-rule:nonzero;stroke:none"
         id="path7927"
         sodipodi:cx="-174.6875"
         sodipodi:cy="290.3125"
         sodipodi:rx="3.4375"
         sodipodi:ry="2.8125"
         d="m -171.25,290.3125 a 3.4375,2.8125 0 1 1 -6.875,0 3.4375,2.8125 0 1 1 6.875,0 z"
         transform="matrix(1.1145503,0,0,0.61032864,271.68519,-51.9777)" />
      <path
         sodipodi:type="arc"
         style="fill:#217821;fill-opacity:1;fill-rule:nonzero;stroke:none"
         id="path7929"
         sodipodi:cx="-155.3125"
         sodipodi:cy="233.75"
         sodipodi:rx="1.5625"
         sodipodi:ry="40"
         d="m -153.75,233.75 a 1.5625,40 0 1 1 -3.125,0 1.5625,40 0 1 1 3.125,0 z"
         transform="matrix(1.1145503,0,0,0.61032864,271.68519,-51.9777)" />
      <path
         sodipodi:type="arc"
         style="fill:#ccff00;fill-opacity:1;fill-rule:nonzero;stroke:none"
         id="path7931"
         sodipodi:cx="-199.375"
         sodipodi:cy="229.375"
         sodipodi:rx="4.375"
         sodipodi:ry="1.875"
         d="m -195,229.375 a 4.375,1.875 0 1 1 -8.75,0 4.375,1.875 0 1 1 8.75,0 z"
         transform="matrix(1.1145503,0,0,0.61032864,271.68519,-51.9777)" />
      <path
         sodipodi:type="arc"
         style="fill:#ccff00;fill-opacity:1;fill-rule:nonzero;stroke:none"
         id="path7933"
         sodipodi:cx="-174.6875"
         sodipodi:cy="290.3125"
         sodipodi:rx="4.6875"
         sodipodi:ry="2.8125"
         d="m -170,290.3125 a 4.6875,2.8125 0 1 1 -9.375,0 4.6875,2.8125 0 1 1 9.375,0 z"
         transform="matrix(1.1145503,0,0,0.61032864,271.68519,-51.9777)" />
      <path
         sodipodi:type="arc"
         style="fill:#ccff00;fill-opacity:1;fill-rule:nonzero;stroke:none"
         id="path7935"
         sodipodi:cx="-184.6875"
         sodipodi:cy="182.1875"
         sodipodi:rx="5.3125"
         sodipodi:ry="2.8125"
         d="m -179.375,182.1875 a 5.3125,2.8125 0 1 1 -10.625,0 5.3125,2.8125 0 1 1 10.625,0 z"
         transform="matrix(1.1145503,0,0,0.61032864,271.68519,-51.9777)" />
      <path
         sodipodi:type="arc"
         style="fill:#ccff00;fill-opacity:1;fill-rule:nonzero;stroke:none"
         id="path7937"
         sodipodi:cx="-167.1875"
         sodipodi:cy="220.9375"
         sodipodi:rx="4.0625"
         sodipodi:ry="2.8125"
         d="m -163.125,220.9375 a 4.0625,2.8125 0 1 1 -8.125,0 4.0625,2.8125 0 1 1 8.125,0 z"
         transform="matrix(1.1145503,0,0,0.61032864,271.68519,-51.9777)" />
      <path
         sodipodi:type="arc"
         style="fill:#ccff00;fill-opacity:1;fill-rule:nonzero;stroke:none"
         id="path7939"
         sodipodi:cx="-234.0625"
         sodipodi:cy="263.125"
         sodipodi:rx="4.6875"
         sodipodi:ry="1.875"
         d="m -229.375,263.125 a 4.6875,1.875 0 1 1 -9.375,0 4.6875,1.875 0 1 1 9.375,0 z"
         transform="matrix(1.1145503,0,0,0.61032864,271.68519,-51.9777)" />
      <path
         sodipodi:type="arc"
         style="fill:#ccff00;fill-opacity:1;fill-rule:nonzero;stroke:none"
         id="path7941"
         sodipodi:cx="-220"
         sodipodi:cy="185.3125"
         sodipodi:rx="7.5"
         sodipodi:ry="1.5625"
         d="m -212.5,185.3125 a 7.5,1.5625 0 1 1 -15,0 7.5,1.5625 0 1 1 15,0 z"
         transform="matrix(1.1145503,0,0,0.61032864,266.68519,-48.2277)" />
      <path
         sodipodi:type="arc"
         style="fill:#ccff00;fill-opacity:1;fill-rule:nonzero;stroke:none"
         id="path7943"
         sodipodi:cx="-190"
         sodipodi:cy="267.1875"
         sodipodi:rx="2.5"
         sodipodi:ry="2.1875"
         d="m -187.5,267.1875 a 2.5,2.1875 0 1 1 -5,0 2.5,2.1875 0 1 1 5,0 z"
         transform="matrix(1.1145503,0,0,0.61032864,286.68519,-59.4777)" />
      <path
         sodipodi:type="arc"
         style="fill:#ccff00;fill-opacity:1;fill-rule:nonzero;stroke:none"
         id="path7945"
         sodipodi:cx="-237.1875"
         sodipodi:cy="220.625"
         sodipodi:rx="4.0625"
         sodipodi:ry="1.875"
         d="m -233.125,220.625 a 4.0625,1.875 0 1 1 -8.125,0 4.0625,1.875 0 1 1 8.125,0 z"
         transform="matrix(1.1145503,0,0,0.61032864,271.68519,-51.9777)" />
      <path
         sodipodi:type="arc"
         style="fill:#ddff55;fill-opacity:1;fill-rule:nonzero;stroke:none"
         id="path7947"
         sodipodi:cx="-199.375"
         sodipodi:cy="145.625"
         sodipodi:rx="5"
         sodipodi:ry="3.125"
         d="m -194.375,145.625 a 5,3.125 0 1 1 -10,0 5,3.125 0 1 1 10,0 z"
         transform="translate(234.67494,-32.978288)" />
    </pattern>
    <filter
       id="filter8131"
       y="-0.15"
       height="1.3"
       x="-0.15"
       width="1.3"
       inkscape:menu-tooltip="Aquarelle paper effect which can be used for pictures as for objects"
       inkscape:menu="Textures"
       inkscape:label="Rough paper"
       color-interpolation-filters="sRGB">
      <feTurbulence
         id="feTurbulence8133"
         type="fractalNoise"
         baseFrequency="0.04"
         numOctaves="5"
         seed="0"
         result="result4" />
      <feDisplacementMap
         id="feDisplacementMap8135"
         in2="result4"
         in="SourceGraphic"
         yChannelSelector="G"
         xChannelSelector="R"
         scale="10"
         result="result3" />
      <feDiffuseLighting
         id="feDiffuseLighting8137"
         lighting-color="rgb(233,230,215)"
         diffuseConstant="1"
         surfaceScale="2"
         result="result1"
         in="result4">
        <feDistantLight
           id="feDistantLight8139"
           azimuth="235"
           elevation="40" />
      </feDiffuseLighting>
      <feComposite
         id="feComposite8141"
         in2="result1"
         operator="in"
         in="result3"
         result="result2" />
      <feComposite
         id="feComposite8143"
         in2="result1"
         result="result5"
         operator="arithmetic"
         k1="1.7" />
      <feBlend
         id="feBlend8145"
         in2="result3"
         in="result5"
         mode="normal" />
    </filter>
    <filter
       id="filter8147"
       y="-0.15"
       height="1.3"
       x="-0.15"
       width="1.3"
       inkscape:menu-tooltip="Aquarelle paper effect which can be used for pictures as for objects"
       inkscape:menu="Textures"
       inkscape:label="Rough paper"
       color-interpolation-filters="sRGB">
      <feTurbulence
         id="feTurbulence8149"
         type="fractalNoise"
         baseFrequency="0.04"
         numOctaves="5"
         seed="0"
         result="result4" />
      <feDisplacementMap
         id="feDisplacementMap8151"
         in2="result4"
         in="SourceGraphic"
         yChannelSelector="G"
         xChannelSelector="R"
         scale="10"
         result="result3" />
      <feDiffuseLighting
         id="feDiffuseLighting8153"
         lighting-color="rgb(233,230,215)"
         diffuseConstant="1"
         surfaceScale="2"
         result="result1"
         in="result4">
        <feDistantLight
           id="feDistantLight8155"
           azimuth="235"
           elevation="40" />
      </feDiffuseLighting>
      <feComposite
         id="feComposite8157"
         in2="result1"
         operator="in"
         in="result3"
         result="result2" />
      <feComposite
         id="feComposite8159"
         in2="result1"
         result="result5"
         operator="arithmetic"
         k1="1.7" />
      <feBlend
         id="feBlend8161"
         in2="result3"
         in="result5"
         mode="normal" />
    </filter>
    <filter
       id="filter3104"
       y="-0.15"
       height="1.3"
       x="-0.15"
       width="1.3"
       inkscape:menu-tooltip="Aquarelle paper effect which can be used for pictures as for objects"
       inkscape:menu="Textures"
       inkscape:label="Rough paper"
       color-interpolation-filters="sRGB">
      <feTurbulence
         id="feTurbulence3106"
         type="fractalNoise"
         baseFrequency="0.04"
         numOctaves="5"
         seed="0"
         result="result4" />
      <feDisplacementMap
         id="feDisplacementMap3108"
         in2="result4"
         in="SourceGraphic"
         yChannelSelector="G"
         xChannelSelector="R"
         scale="10"
         result="result3" />
      <feDiffuseLighting
         id="feDiffuseLighting3110"
         lighting-color="rgb(233,230,215)"
         diffuseConstant="1"
         surfaceScale="2"
         result="result1"
         in="result4">
        <feDistantLight
           id="feDistantLight3112"
           azimuth="235"
           elevation="40" />
      </feDiffuseLighting>
      <feComposite
         id="feComposite3114"
         in2="result1"
         operator="in"
         in="result3"
         result="result2" />
      <feComposite
         id="feComposite3116"
         in2="result1"
         result="result5"
         operator="arithmetic"
         k1="1.7" />
      <feBlend
         id="feBlend3118"
         in2="result3"
         in="result5"
         mode="normal" />
    </filter>
    <filter
       id="filter3120"
       y="-0.15"
       height="1.3"
       x="-0.15"
       width="1.3"
       inkscape:menu-tooltip="Aquarelle paper effect which can be used for pictures as for objects"
       inkscape:menu="Textures"
       inkscape:label="Rough paper"
       color-interpolation-filters="sRGB">
      <feTurbulence
         id="feTurbulence3122"
         type="fractalNoise"
         baseFrequency="0.04"
         numOctaves="5"
         seed="0"
         result="result4" />
      <feDisplacementMap
         id="feDisplacementMap3124"
         in2="result4"
         in="SourceGraphic"
         yChannelSelector="G"
         xChannelSelector="R"
         scale="10"
         result="result3" />
      <feDiffuseLighting
         id="feDiffuseLighting3126"
         lighting-color="rgb(233,230,215)"
         diffuseConstant="1"
         surfaceScale="2"
         result="result1"
         in="result4">
        <feDistantLight
           id="feDistantLight3128"
           azimuth="235"
           elevation="40" />
      </feDiffuseLighting>
      <feComposite
         id="feComposite3130"
         in2="result1"
         operator="in"
         in="result3"
         result="result2" />
      <feComposite
         id="feComposite3132"
         in2="result1"
         result="result5"
         operator="arithmetic"
         k1="1.7" />
      <feBlend
         id="feBlend3134"
         in2="result3"
         in="result5"
         mode="normal" />
    </filter>
    <filter
       id="filter3175"
       y="-0.15"
       height="1.3"
       x="-0.15"
       width="1.3"
       inkscape:menu-tooltip="Aquarelle paper effect which can be used for pictures as for objects"
       inkscape:menu="Textures"
       inkscape:label="Rough paper"
       color-interpolation-filters="sRGB">
      <feTurbulence
         id="feTurbulence3177"
         type="fractalNoise"
         baseFrequency="0.04"
         numOctaves="5"
         seed="0"
         result="result4" />
      <feDisplacementMap
         id="feDisplacementMap3179"
         in2="result4"
         in="SourceGraphic"
         yChannelSelector="G"
         xChannelSelector="R"
         scale="10"
         result="result3" />
      <feDiffuseLighting
         id="feDiffuseLighting3181"
         lighting-color="rgb(233,230,215)"
         diffuseConstant="1"
         surfaceScale="2"
         result="result1"
         in="result4">
        <feDistantLight
           id="feDistantLight3183"
           azimuth="235"
           elevation="40" />
      </feDiffuseLighting>
      <feComposite
         id="feComposite3185"
         in2="result1"
         operator="in"
         in="result3"
         result="result2" />
      <feComposite
         id="feComposite3187"
         in2="result1"
         result="result5"
         operator="arithmetic"
         k1="1.7" />
      <feBlend
         id="feBlend3189"
         in2="result3"
         in="result5"
         mode="normal" />
    </filter>
  </defs>
  <sodipodi:namedview
     pagecolor="#ffffff"
     bordercolor="#666666"
     borderopacity="1.0"
     inkscape:pageopacity="0.0"
     inkscape:pageshadow="2"
     inkscape:zoom="0.8"
     inkscape:cx="210.82749"
     inkscape:cy="198.24921"
     inkscape:document-units="pt"
     inkscape:current-layer="layer2"
     id="namedview6672"
     showgrid="false"
     inkscape:window-width="1116"
     inkscape:window-height="627"
     inkscape:window-x="108"
     inkscape:window-y="0"
     inkscape:window-maximized="0" />
  <metadata
     id="metadata6674">
    <rdf:RDF>
      <cc:Work
         rdf:about="">
        <dc:format>image/svg+xml</dc:format>
        <dc:type
           rdf:resource="http://purl.org/dc/dcmitype/StillImage" />
        <dc:title />
      </cc:Work>
    </rdf:RDF>
  </metadata>
  <g
     inkscape:groupmode="layer"
     id="layer2"
     inkscape:label="Layer">
    <rect
       style="fill:none;fill-opacity:1;fill-rule:nonzero;stroke:none"
       id="rect7982"
       width="497.5"
       height="112.5"
       x="-71.25"
       y="-136.25" />
    <path
       style="fill:#442178;fill-opacity:1;fill-rule:nonzero;stroke:none;filter:url(#filter3175)"
       d="m 71.875,337.5 c -14.88875,0 4.375,0.32532 -26.875,11.875 22.296975,9.40511 18.089813,11.4135 20.5625,11.8125 -1.183346,1.60778 -4.71685,4.5431 -19.3125,9.9375 18.571833,7.8338 18.751045,10.52825 19.71875,11.4375 -0.747632,1.40729 -2.846755,4.32678 -19.71875,10.5625 18.571833,7.8338 18.751045,10.52825 19.71875,11.4375 -0.747632,1.40729 -2.846755,4.32678 -19.71875,10.5625 30,12.65433 11.98625,11.875 26.875,11.875 l 278.75,0 c 14.88875,0 -0.625,0.77933 26.875,-11.875 -16.30051,-6.48607 -16.98131,-9.49395 -18.71875,-10.84375 1.32103,-1.11514 3.03854,-3.94089 18.71875,-11.15625 -16.30051,-6.48607 -16.98131,-9.49395 -18.71875,-10.84375 1.32103,-1.11514 3.03854,-3.94089 18.71875,-11.15625 -17.88009,-7.11459 -16.97844,-10.04109 -19.28125,-11.1875 1.46836,-1.43154 4.63358,-4.39746 18.03125,-10.5625 C 351.25,338.92997 365.51375,337.5 350.625,337.5 l -278.75,0 z"
       id="path3163"
       inkscape:connector-curvature="0" />
  </g>
  <g
     inkscape:label="Layer 1"
     inkscape:groupmode="layer"
     id="layer1">
    <rect
       style="fill:#8d5fd3;fill-opacity:1;fill-rule:nonzero;stroke:none;filter:url(#filter3104)"
       id="rect3109"
       width="426.25"
       height="57.5"
       x="3"
       y="284"
       ry="28.75" />
  </g>
</svg>
