<?xml version="1.0" encoding="UTF-8" standalone="no"?>
<!-- Created with Inkscape (http://www.inkscape.org/) -->

<svg
   xmlns:dc="http://purl.org/dc/elements/1.1/"
   xmlns:cc="http://creativecommons.org/ns#"
   xmlns:rdf="http://www.w3.org/1999/02/22-rdf-syntax-ns#"
   xmlns:svg="http://www.w3.org/2000/svg"
   xmlns="http://www.w3.org/2000/svg"
   xmlns:sodipodi="http://sodipodi.sourceforge.net/DTD/sodipodi-0.dtd"
   xmlns:inkscape="http://www.inkscape.org/namespaces/inkscape"
   width="343pt"
   height="340pt"
   id="svg6668"
   version="1.1"
   inkscape:version="0.48.2 r9819"
   inkscape:export-filename="/Users/margot/Desktop/Crunch/assets/Tiles/6464 Tiles/TH2.png"
   inkscape:export-xdpi="90"
   inkscape:export-ydpi="90"
   sodipodi:docname="T2.svg">
  <defs
     id="defs6670">
    <filter
       id="filter6683"
       y="-0.15"
       height="1.3"
       x="-0.15"
       width="1.3"
       inkscape:menu-tooltip="Aquarelle paper effect which can be used for pictures as for objects"
       inkscape:menu="Textures"
       inkscape:label="Rough paper"
       color-interpolation-filters="sRGB">
      <feTurbulence
         id="feTurbulence6685"
         type="fractalNoise"
         baseFrequency="0.04"
         numOctaves="5"
         seed="0"
         result="result4" />
      <feDisplacementMap
         id="feDisplacementMap6687"
         in2="result4"
         in="SourceGraphic"
         yChannelSelector="G"
         xChannelSelector="R"
         scale="10"
         result="result3" />
      <feDiffuseLighting
         id="feDiffuseLighting6689"
         lighting-color="rgb(233,230,215)"
         diffuseConstant="1"
         surfaceScale="2"
         result="result1"
         in="result4">
        <feDistantLight
           id="feDistantLight6691"
           azimuth="235"
           elevation="40" />
      </feDiffuseLighting>
      <feComposite
         id="feComposite6693"
         in2="result1"
         operator="in"
         in="result3"
         result="result2" />
      <feComposite
         id="feComposite6695"
         in2="result1"
         result="result5"
         operator="arithmetic"
         k1="1.7" />
      <feBlend
         id="feBlend6697"
         in2="result3"
         in="result5"
         mode="normal" />
    </filter>
    <filter
       id="filter6699"
       y="-0.15"
       height="1.3"
       x="-0.15"
       width="1.3"
       inkscape:menu-tooltip="Aquarelle paper effect which can be used for pictures as for objects"
       inkscape:menu="Textures"
       inkscape:label="Rough paper"
       color-interpolation-filters="sRGB">
      <feTurbulence
         id="feTurbulence6701"
         type="fractalNoise"
         baseFrequency="0.04"
         numOctaves="5"
         seed="0"
         result="result4" />
      <feDisplacementMap
         id="feDisplacementMap6703"
         in2="result4"
         in="SourceGraphic"
         yChannelSelector="G"
         xChannelSelector="R"
         scale="10"
         result="result3" />
      <feDiffuseLighting
         id="feDiffuseLighting6705"
         lighting-color="rgb(233,230,215)"
         diffuseConstant="1"
         surfaceScale="2"
         result="result1"
         in="result4">
        <feDistantLight
           id="feDistantLight6707"
           azimuth="235"
           elevation="40" />
      </feDiffuseLighting>
      <feComposite
         id="feComposite6709"
         in2="result1"
         operator="in"
         in="result3"
         result="result2" />
      <feComposite
         id="feComposite6711"
         in2="result1"
         result="result5"
         operator="arithmetic"
         k1="1.7" />
      <feBlend
         id="feBlend6713"
         in2="result3"
         in="result5"
         mode="normal" />
    </filter>
    <pattern
       patternUnits="userSpaceOnUse"
       width="102.82308"
       height="126.92488"
       patternTransform="translate(-246.54994,84.228288)"
       id="pattern7986">
      <path
         transform="matrix(1.1145503,0,0,0.61032864,256.06019,-131.3527)"
         d="m -225,230.3125 a 1.25,14.0625 0 1 1 -2.5,0 1.25,14.0625 0 1 1 2.5,0 z"
         sodipodi:ry="14.0625"
         sodipodi:rx="1.25"
         sodipodi:cy="230.3125"
         sodipodi:cx="-226.25"
         id="path7231"
         style="fill:#217821;fill-opacity:1;fill-rule:nonzero;stroke:none"
         sodipodi:type="arc" />
      <path
         transform="matrix(1.1145503,0,0,0.61032864,251.06019,-120.1027)"
         d="m -202.5,270.625 a 1.5625,31.875 0 1 1 -3.125,0 1.5625,31.875 0 1 1 3.125,0 z"
         sodipodi:ry="31.875"
         sodipodi:rx="1.5625"
         sodipodi:cy="270.625"
         sodipodi:cx="-204.0625"
         id="path7236"
         style="fill:#217821;fill-opacity:1;fill-rule:nonzero;stroke:none"
         sodipodi:type="arc" />
      <path
         transform="matrix(1.1145503,0,0,0.61032864,274.18519,-113.2277)"
         d="m -182.5,230 a 1.25,26.875 0 1 1 -2.5,0 1.25,26.875 0 1 1 2.5,0 z"
         sodipodi:ry="26.875"
         sodipodi:rx="1.25"
         sodipodi:cy="230"
         sodipodi:cx="-183.75"
         id="path7238"
         style="fill:#217821;fill-opacity:1;fill-rule:nonzero;stroke:none"
         sodipodi:type="arc" />
      <path
         transform="matrix(1.1145503,0,0,0.61032864,272.93519,-101.3527)"
         d="m -207.5,195.625 a 1.875,26.25 0 1 1 -3.75,0 1.875,26.25 0 1 1 3.75,0 z"
         sodipodi:ry="26.25"
         sodipodi:rx="1.875"
         sodipodi:cy="195.625"
         sodipodi:cx="-209.375"
         id="path7240"
         style="fill:#217821;fill-opacity:1;fill-rule:nonzero;stroke:none"
         sodipodi:type="arc" />
      <path
         transform="matrix(1.1145503,0,0,0.61032864,274.18519,-109.4777)"
         d="m -171.25,290.3125 a 3.4375,2.8125 0 1 1 -6.875,0 3.4375,2.8125 0 1 1 6.875,0 z"
         sodipodi:ry="2.8125"
         sodipodi:rx="3.4375"
         sodipodi:cy="290.3125"
         sodipodi:cx="-174.6875"
         id="path7242"
         style="fill:#217821;fill-opacity:1;fill-rule:nonzero;stroke:none"
         sodipodi:type="arc" />
      <path
         transform="matrix(1.1145503,0,0,0.61032864,274.18519,-109.4777)"
         d="m -153.75,233.75 a 1.5625,40 0 1 1 -3.125,0 1.5625,40 0 1 1 3.125,0 z"
         sodipodi:ry="40"
         sodipodi:rx="1.5625"
         sodipodi:cy="233.75"
         sodipodi:cx="-155.3125"
         id="path7244"
         style="fill:#217821;fill-opacity:1;fill-rule:nonzero;stroke:none"
         sodipodi:type="arc" />
      <path
         transform="matrix(1.1145503,0,0,0.61032864,274.18519,-109.4777)"
         d="m -195,229.375 a 4.375,1.875 0 1 1 -8.75,0 4.375,1.875 0 1 1 8.75,0 z"
         sodipodi:ry="1.875"
         sodipodi:rx="4.375"
         sodipodi:cy="229.375"
         sodipodi:cx="-199.375"
         id="path7248"
         style="fill:#ccff00;fill-opacity:1;fill-rule:nonzero;stroke:none"
         sodipodi:type="arc" />
      <path
         transform="matrix(1.1145503,0,0,0.61032864,274.18519,-109.4777)"
         d="m -170,290.3125 a 4.6875,2.8125 0 1 1 -9.375,0 4.6875,2.8125 0 1 1 9.375,0 z"
         sodipodi:ry="2.8125"
         sodipodi:rx="4.6875"
         sodipodi:cy="290.3125"
         sodipodi:cx="-174.6875"
         id="path7250"
         style="fill:#ccff00;fill-opacity:1;fill-rule:nonzero;stroke:none"
         sodipodi:type="arc" />
      <path
         transform="matrix(1.1145503,0,0,0.61032864,274.18519,-109.4777)"
         d="m -179.375,182.1875 a 5.3125,2.8125 0 1 1 -10.625,0 5.3125,2.8125 0 1 1 10.625,0 z"
         sodipodi:ry="2.8125"
         sodipodi:rx="5.3125"
         sodipodi:cy="182.1875"
         sodipodi:cx="-184.6875"
         id="path7252"
         style="fill:#ccff00;fill-opacity:1;fill-rule:nonzero;stroke:none"
         sodipodi:type="arc" />
      <path
         transform="matrix(1.1145503,0,0,0.61032864,274.18519,-109.4777)"
         d="m -163.125,220.9375 a 4.0625,2.8125 0 1 1 -8.125,0 4.0625,2.8125 0 1 1 8.125,0 z"
         sodipodi:ry="2.8125"
         sodipodi:rx="4.0625"
         sodipodi:cy="220.9375"
         sodipodi:cx="-167.1875"
         id="path7254"
         style="fill:#ccff00;fill-opacity:1;fill-rule:nonzero;stroke:none"
         sodipodi:type="arc" />
      <path
         transform="matrix(1.1145503,0,0,0.61032864,274.18519,-109.4777)"
         d="m -229.375,263.125 a 4.6875,1.875 0 1 1 -9.375,0 4.6875,1.875 0 1 1 9.375,0 z"
         sodipodi:ry="1.875"
         sodipodi:rx="4.6875"
         sodipodi:cy="263.125"
         sodipodi:cx="-234.0625"
         id="path7256"
         style="fill:#ccff00;fill-opacity:1;fill-rule:nonzero;stroke:none"
         sodipodi:type="arc" />
      <path
         transform="matrix(1.1145503,0,0,0.61032864,269.18519,-105.7277)"
         d="m -212.5,185.3125 a 7.5,1.5625 0 1 1 -15,0 7.5,1.5625 0 1 1 15,0 z"
         sodipodi:ry="1.5625"
         sodipodi:rx="7.5"
         sodipodi:cy="185.3125"
         sodipodi:cx="-220"
         id="path7258"
         style="fill:#ccff00;fill-opacity:1;fill-rule:nonzero;stroke:none"
         sodipodi:type="arc" />
      <path
         transform="matrix(1.1145503,0,0,0.61032864,289.18519,-116.9777)"
         d="m -187.5,267.1875 a 2.5,2.1875 0 1 1 -5,0 2.5,2.1875 0 1 1 5,0 z"
         sodipodi:ry="2.1875"
         sodipodi:rx="2.5"
         sodipodi:cy="267.1875"
         sodipodi:cx="-190"
         id="path7260"
         style="fill:#ccff00;fill-opacity:1;fill-rule:nonzero;stroke:none"
         sodipodi:type="arc" />
      <path
         transform="matrix(1.1145503,0,0,0.61032864,274.18519,-109.4777)"
         d="m -233.125,220.625 a 4.0625,1.875 0 1 1 -8.125,0 4.0625,1.875 0 1 1 8.125,0 z"
         sodipodi:ry="1.875"
         sodipodi:rx="4.0625"
         sodipodi:cy="220.625"
         sodipodi:cx="-237.1875"
         id="path7264"
         style="fill:#ccff00;fill-opacity:1;fill-rule:nonzero;stroke:none"
         sodipodi:type="arc" />
      <path
         transform="translate(237.17494,-90.478288)"
         d="m -194.375,145.625 a 5,3.125 0 1 1 -10,0 5,3.125 0 1 1 10,0 z"
         sodipodi:ry="3.125"
         sodipodi:rx="5"
         sodipodi:cy="145.625"
         sodipodi:cx="-199.375"
         id="path7807"
         style="fill:#ddff55;fill-opacity:1;fill-rule:nonzero;stroke:none"
         sodipodi:type="arc" />
      <path
         sodipodi:type="arc"
         style="fill:#217821;fill-opacity:1;fill-rule:nonzero;stroke:none"
         id="path7919"
         sodipodi:cx="-226.25"
         sodipodi:cy="230.3125"
         sodipodi:rx="1.25"
         sodipodi:ry="14.0625"
         d="m -225,230.3125 a 1.25,14.0625 0 1 1 -2.5,0 1.25,14.0625 0 1 1 2.5,0 z"
         transform="matrix(1.1145503,0,0,0.61032864,253.56019,-73.8527)" />
      <path
         sodipodi:type="arc"
         style="fill:#217821;fill-opacity:1;fill-rule:nonzero;stroke:none"
         id="path7921"
         sodipodi:cx="-204.0625"
         sodipodi:cy="270.625"
         sodipodi:rx="1.5625"
         sodipodi:ry="31.875"
         d="m -202.5,270.625 a 1.5625,31.875 0 1 1 -3.125,0 1.5625,31.875 0 1 1 3.125,0 z"
         transform="matrix(1.1145503,0,0,0.61032864,248.56019,-62.6027)" />
      <path
         sodipodi:type="arc"
         style="fill:#217821;fill-opacity:1;fill-rule:nonzero;stroke:none"
         id="path7923"
         sodipodi:cx="-183.75"
         sodipodi:cy="230"
         sodipodi:rx="1.25"
         sodipodi:ry="26.875"
         d="m -182.5,230 a 1.25,26.875 0 1 1 -2.5,0 1.25,26.875 0 1 1 2.5,0 z"
         transform="matrix(1.1145503,0,0,0.61032864,271.68519,-55.7277)" />
      <path
         sodipodi:type="arc"
         style="fill:#217821;fill-opacity:1;fill-rule:nonzero;stroke:none"
         id="path7925"
         sodipodi:cx="-209.375"
         sodipodi:cy="195.625"
         sodipodi:rx="1.875"
         sodipodi:ry="26.25"
         d="m -207.5,195.625 a 1.875,26.25 0 1 1 -3.75,0 1.875,26.25 0 1 1 3.75,0 z"
         transform="matrix(1.1145503,0,0,0.61032864,270.43519,-43.8527)" />
      <path
         sodipodi:type="arc"
         style="fill:#217821;fill-opacity:1;fill-rule:nonzero;stroke:none"
         id="path7927"
         sodipodi:cx="-174.6875"
         sodipodi:cy="290.3125"
         sodipodi:rx="3.4375"
         sodipodi:ry="2.8125"
         d="m -171.25,290.3125 a 3.4375,2.8125 0 1 1 -6.875,0 3.4375,2.8125 0 1 1 6.875,0 z"
         transform="matrix(1.1145503,0,0,0.61032864,271.68519,-51.9777)" />
      <path
         sodipodi:type="arc"
         style="fill:#217821;fill-opacity:1;fill-rule:nonzero;stroke:none"
         id="path7929"
         sodipodi:cx="-155.3125"
         sodipodi:cy="233.75"
         sodipodi:rx="1.5625"
         sodipodi:ry="40"
         d="m -153.75,233.75 a 1.5625,40 0 1 1 -3.125,0 1.5625,40 0 1 1 3.125,0 z"
         transform="matrix(1.1145503,0,0,0.61032864,271.68519,-51.9777)" />
      <path
         sodipodi:type="arc"
         style="fill:#ccff00;fill-opacity:1;fill-rule:nonzero;stroke:none"
         id="path7931"
         sodipodi:cx="-199.375"
         sodipodi:cy="229.375"
         sodipodi:rx="4.375"
         sodipodi:ry="1.875"
         d="m -195,229.375 a 4.375,1.875 0 1 1 -8.75,0 4.375,1.875 0 1 1 8.75,0 z"
         transform="matrix(1.1145503,0,0,0.61032864,271.68519,-51.9777)" />
      <path
         sodipodi:type="arc"
         style="fill:#ccff00;fill-opacity:1;fill-rule:nonzero;stroke:none"
         id="path7933"
         sodipodi:cx="-174.6875"
         sodipodi:cy="290.3125"
         sodipodi:rx="4.6875"
         sodipodi:ry="2.8125"
         d="m -170,290.3125 a 4.6875,2.8125 0 1 1 -9.375,0 4.6875,2.8125 0 1 1 9.375,0 z"
         transform="matrix(1.1145503,0,0,0.61032864,271.68519,-51.9777)" />
      <path
         sodipodi:type="arc"
         style="fill:#ccff00;fill-opacity:1;fill-rule:nonzero;stroke:none"
         id="path7935"
         sodipodi:cx="-184.6875"
         sodipodi:cy="182.1875"
         sodipodi:rx="5.3125"
         sodipodi:ry="2.8125"
         d="m -179.375,182.1875 a 5.3125,2.8125 0 1 1 -10.625,0 5.3125,2.8125 0 1 1 10.625,0 z"
         transform="matrix(1.1145503,0,0,0.61032864,271.68519,-51.9777)" />
      <path
         sodipodi:type="arc"
         style="fill:#ccff00;fill-opacity:1;fill-rule:nonzero;stroke:none"
         id="path7937"
         sodipodi:cx="-167.1875"
         sodipodi:cy="220.9375"
         sodipodi:rx="4.0625"
         sodipodi:ry="2.8125"
         d="m -163.125,220.9375 a 4.0625,2.8125 0 1 1 -8.125,0 4.0625,2.8125 0 1 1 8.125,0 z"
         transform="matrix(1.1145503,0,0,0.61032864,271.68519,-51.9777)" />
      <path
         sodipodi:type="arc"
         style="fill:#ccff00;fill-opacity:1;fill-rule:nonzero;stroke:none"
         id="path7939"
         sodipodi:cx="-234.0625"
         sodipodi:cy="263.125"
         sodipodi:rx="4.6875"
         sodipodi:ry="1.875"
         d="m -229.375,263.125 a 4.6875,1.875 0 1 1 -9.375,0 4.6875,1.875 0 1 1 9.375,0 z"
         transform="matrix(1.1145503,0,0,0.61032864,271.68519,-51.9777)" />
      <path
         sodipodi:type="arc"
         style="fill:#ccff00;fill-opacity:1;fill-rule:nonzero;stroke:none"
         id="path7941"
         sodipodi:cx="-220"
         sodipodi:cy="185.3125"
         sodipodi:rx="7.5"
         sodipodi:ry="1.5625"
         d="m -212.5,185.3125 a 7.5,1.5625 0 1 1 -15,0 7.5,1.5625 0 1 1 15,0 z"
         transform="matrix(1.1145503,0,0,0.61032864,266.68519,-48.2277)" />
      <path
         sodipodi:type="arc"
         style="fill:#ccff00;fill-opacity:1;fill-rule:nonzero;stroke:none"
         id="path7943"
         sodipodi:cx="-190"
         sodipodi:cy="267.1875"
         sodipodi:rx="2.5"
         sodipodi:ry="2.1875"
         d="m -187.5,267.1875 a 2.5,2.1875 0 1 1 -5,0 2.5,2.1875 0 1 1 5,0 z"
         transform="matrix(1.1145503,0,0,0.61032864,286.68519,-59.4777)" />
      <path
         sodipodi:type="arc"
         style="fill:#ccff00;fill-opacity:1;fill-rule:nonzero;stroke:none"
         id="path7945"
         sodipodi:cx="-237.1875"
         sodipodi:cy="220.625"
         sodipodi:rx="4.0625"
         sodipodi:ry="1.875"
         d="m -233.125,220.625 a 4.0625,1.875 0 1 1 -8.125,0 4.0625,1.875 0 1 1 8.125,0 z"
         transform="matrix(1.1145503,0,0,0.61032864,271.68519,-51.9777)" />
      <path
         sodipodi:type="arc"
         style="fill:#ddff55;fill-opacity:1;fill-rule:nonzero;stroke:none"
         id="path7947"
         sodipodi:cx="-199.375"
         sodipodi:cy="145.625"
         sodipodi:rx="5"
         sodipodi:ry="3.125"
         d="m -194.375,145.625 a 5,3.125 0 1 1 -10,0 5,3.125 0 1 1 10,0 z"
         transform="translate(234.67494,-32.978288)" />
    </pattern>
    <filter
       id="filter8131"
       y="-0.15"
       height="1.3"
       x="-0.15"
       width="1.3"
       inkscape:menu-tooltip="Aquarelle paper effect which can be used for pictures as for objects"
       inkscape:menu="Textures"
       inkscape:label="Rough paper"
       color-interpolation-filters="sRGB">
      <feTurbulence
         id="feTurbulence8133"
         type="fractalNoise"
         baseFrequency="0.04"
         numOctaves="5"
         seed="0"
         result="result4" />
      <feDisplacementMap
         id="feDisplacementMap8135"
         in2="result4"
         in="SourceGraphic"
         yChannelSelector="G"
         xChannelSelector="R"
         scale="10"
         result="result3" />
      <feDiffuseLighting
         id="feDiffuseLighting8137"
         lighting-color="rgb(233,230,215)"
         diffuseConstant="1"
         surfaceScale="2"
         result="result1"
         in="result4">
        <feDistantLight
           id="feDistantLight8139"
           azimuth="235"
           elevation="40" />
      </feDiffuseLighting>
      <feComposite
         id="feComposite8141"
         in2="result1"
         operator="in"
         in="result3"
         result="result2" />
      <feComposite
         id="feComposite8143"
         in2="result1"
         result="result5"
         operator="arithmetic"
         k1="1.7" />
      <feBlend
         id="feBlend8145"
         in2="result3"
         in="result5"
         mode="normal" />
    </filter>
    <filter
       id="filter8147"
       y="-0.15"
       height="1.3"
       x="-0.15"
       width="1.3"
       inkscape:menu-tooltip="Aquarelle paper effect which can be used for pictures as for objects"
       inkscape:menu="Textures"
       inkscape:label="Rough paper"
       color-interpolation-filters="sRGB">
      <feTurbulence
         id="feTurbulence8149"
         type="fractalNoise"
         baseFrequency="0.04"
         numOctaves="5"
         seed="0"
         result="result4" />
      <feDisplacementMap
         id="feDisplacementMap8151"
         in2="result4"
         in="SourceGraphic"
         yChannelSelector="G"
         xChannelSelector="R"
         scale="10"
         result="result3" />
      <feDiffuseLighting
         id="feDiffuseLighting8153"
         lighting-color="rgb(233,230,215)"
         diffuseConstant="1"
         surfaceScale="2"
         result="result1"
         in="result4">
        <feDistantLight
           id="feDistantLight8155"
           azimuth="235"
           elevation="40" />
      </feDiffuseLighting>
      <feComposite
         id="feComposite8157"
         in2="result1"
         operator="in"
         in="result3"
         result="result2" />
      <feComposite
         id="feComposite8159"
         in2="result1"
         result="result5"
         operator="arithmetic"
         k1="1.7" />
      <feBlend
         id="feBlend8161"
         in2="result3"
         in="result5"
         mode="normal" />
    </filter>
  </defs>
  <sodipodi:namedview
     pagecolor="#ffffff"
     bordercolor="#666666"
     borderopacity="1.0"
     inkscape:pageopacity="0.0"
     inkscape:pageshadow="2"
     inkscape:zoom="0.8"
     inkscape:cx="210.82749"
     inkscape:cy="207.33353"
     inkscape:document-units="pt"
     inkscape:current-layer="layer1"
     id="namedview6672"
     showgrid="false"
     inkscape:window-width="1176"
     inkscape:window-height="756"
     inkscape:window-x="108"
     inkscape:window-y="0"
     inkscape:window-maximized="0" />
  <metadata
     id="metadata6674">
    <rdf:RDF>
      <cc:Work
         rdf:about="">
        <dc:format>image/svg+xml</dc:format>
        <dc:type
           rdf:resource="http://purl.org/dc/dcmitype/StillImage" />
        <dc:title></dc:title>
      </cc:Work>
    </rdf:RDF>
  </metadata>
  <g
     inkscape:groupmode="layer"
     id="layer2"
     inkscape:label="Layer">
    <rect
       style="fill:none;fill-opacity:1;fill-rule:nonzero;stroke:none"
       id="rect7982"
       width="497.5"
       height="112.5"
       x="-71.25"
       y="-136.25" />
  </g>
  <g
     inkscape:label="Layer 1"
     inkscape:groupmode="layer"
     id="layer1">
    <rect
       style="fill:#deaa87;fill-opacity:1;fill-rule:nonzero;stroke:none;filter:url(#filter8147)"
       id="rect6677"
       width="448.75"
       height="353.75"
       x="-8.75"
       y="82.5"
       transform="matrix(1,0,0,1.2358616,7.5,-105.79991)" />
    <path
       transform="matrix(6.2842973,0,0,6.7342456,2410.4702,-1813.9751)"
       sodipodi:type="spiral"
       style="fill:none;stroke:#7a4709;stroke-width:0.96074295;stroke-linecap:butt;stroke-linejoin:miter;stroke-miterlimit:4;stroke-opacity:1;stroke-dasharray:23.05782937, 23.05782937;stroke-dashoffset:0"
       id="path8216"
       sodipodi:cx="-347.5"
       sodipodi:cy="296.25"
       sodipodi:expansion="2.1300001"
       sodipodi:revolution="3.0125182"
       sodipodi:radius="36.617912"
       sodipodi:argument="-16.471521"
       sodipodi:t0="0.084081851"
       d="m -347.62691,296.1118 c -0.037,-0.3643 0.46072,-0.47261 0.72349,-0.40964 0.84111,0.20157 0.98752,1.27806 0.69673,1.95621 -0.64121,1.49534 -2.60165,1.67833 -3.88644,0.9729 -2.34005,-1.28482 -2.5519,-4.45846 -1.23176,-6.54645 2.13917,-3.38342 6.86827,-3.61338 9.96087,-1.4695 4.63114,3.21043 4.86693,9.8469 1.68347,14.14979 -4.50392,6.08769 -13.4076,6.31612 -19.13031,1.87169 -7.75683,-6.02419 -7.96407,-17.56184 -2.03256,-24.91733 7.77527,-9.64189 22.31975,-9.81359 31.52407,-2.16481 11.74585,9.76077 11.86726,27.69042 2.26736,38.96252 -11.98394,14.07139 -33.68211,14.12743 -47.24355,2.33923 -0.5353,-0.46531 -1.05699,-0.94627 -1.56429,-1.44196" />
    <path
       d="m -347.5,296.25 c -0.0566,0.0541 -0.12281,-0.10567 -0.12618,-0.13181 -0.0462,-0.35825 0.44339,-0.47623 0.70314,-0.42048 0.83761,0.17978 1.00559,1.24348 0.73296,1.92071 -0.60318,1.49831 -2.54565,1.72115 -3.83537,1.04906 -2.35355,-1.22647 -2.63042,-4.37684 -1.36304,-6.47964 2.05624,-3.41168 6.75678,-3.73895 9.8783,-1.67157 4.67854,3.09859 5.05124,9.70125 1.97241,14.05156 -4.35871,6.15873 -13.22346,6.57113 -19.01656,2.2639 -7.85613,-5.8411 -8.302,-17.33481 -2.54481,-24.78825 7.54974,-9.77414 22.04541,-10.24687 31.37995,-2.81409 8.36491,6.6607 11.48777,18.10787 8.59307,28.26814"
       sodipodi:t0="0"
       sodipodi:argument="-16.471521"
       sodipodi:radius="28.672079"
       sodipodi:revolution="2.6856811"
       sodipodi:expansion="2.1300001"
       sodipodi:cy="296.25"
       sodipodi:cx="-347.5"
       id="path3096"
       style="fill:none;stroke:#7a4709;stroke-width:1.80232012;stroke-linecap:butt;stroke-linejoin:miter;stroke-miterlimit:4;stroke-opacity:1;stroke-dasharray:43.25568126, 43.25568126;stroke-dashoffset:0"
       sodipodi:type="spiral"
       transform="matrix(2.5515984,0,0,4.7128528,963.1902,-1078.6084)" />
  </g>
</svg>
