<?xml version="1.0" encoding="UTF-8" standalone="no"?>
<!-- Created with Inkscape (http://www.inkscape.org/) -->

<svg
   xmlns:dc="http://purl.org/dc/elements/1.1/"
   xmlns:cc="http://creativecommons.org/ns#"
   xmlns:rdf="http://www.w3.org/1999/02/22-rdf-syntax-ns#"
   xmlns:svg="http://www.w3.org/2000/svg"
   xmlns="http://www.w3.org/2000/svg"
   xmlns:sodipodi="http://sodipodi.sourceforge.net/DTD/sodipodi-0.dtd"
   xmlns:inkscape="http://www.inkscape.org/namespaces/inkscape"
   width="343pt"
   height="340pt"
   id="svg6668"
   version="1.1"
   inkscape:version="0.48.2 r9819"
   inkscape:export-filename="/Users/margot/Desktop/Crunch/assets/Tiles/6464 Tiles/TH3.png"
   inkscape:export-xdpi="90"
   inkscape:export-ydpi="90"
   sodipodi:docname="TH3.svg">
  <defs
     id="defs6670">
    <filter
       id="filter6683"
       y="-0.15"
       height="1.3"
       x="-0.15"
       width="1.3"
       inkscape:menu-tooltip="Aquarelle paper effect which can be used for pictures as for objects"
       inkscape:menu="Textures"
       inkscape:label="Rough paper"
       color-interpolation-filters="sRGB">
      <feTurbulence
         id="feTurbulence6685"
         type="fractalNoise"
         baseFrequency="0.04"
         numOctaves="5"
         seed="0"
         result="result4" />
      <feDisplacementMap
         id="feDisplacementMap6687"
         in2="result4"
         in="SourceGraphic"
         yChannelSelector="G"
         xChannelSelector="R"
         scale="10"
         result="result3" />
      <feDiffuseLighting
         id="feDiffuseLighting6689"
         lighting-color="rgb(233,230,215)"
         diffuseConstant="1"
         surfaceScale="2"
         result="result1"
         in="result4">
        <feDistantLight
           id="feDistantLight6691"
           azimuth="235"
           elevation="40" />
      </feDiffuseLighting>
      <feComposite
         id="feComposite6693"
         in2="result1"
         operator="in"
         in="result3"
         result="result2" />
      <feComposite
         id="feComposite6695"
         in2="result1"
         result="result5"
         operator="arithmetic"
         k1="1.7" />
      <feBlend
         id="feBlend6697"
         in2="result3"
         in="result5"
         mode="normal" />
    </filter>
    <filter
       id="filter6699"
       y="-0.15"
       height="1.3"
       x="-0.15"
       width="1.3"
       inkscape:menu-tooltip="Aquarelle paper effect which can be used for pictures as for objects"
       inkscape:menu="Textures"
       inkscape:label="Rough paper"
       color-interpolation-filters="sRGB">
      <feTurbulence
         id="feTurbulence6701"
         type="fractalNoise"
         baseFrequency="0.04"
         numOctaves="5"
         seed="0"
         result="result4" />
      <feDisplacementMap
         id="feDisplacementMap6703"
         in2="result4"
         in="SourceGraphic"
         yChannelSelector="G"
         xChannelSelector="R"
         scale="10"
         result="result3" />
      <feDiffuseLighting
         id="feDiffuseLighting6705"
         lighting-color="rgb(233,230,215)"
         diffuseConstant="1"
         surfaceScale="2"
         result="result1"
         in="result4">
        <feDistantLight
           id="feDistantLight6707"
           azimuth="235"
           elevation="40" />
      </feDiffuseLighting>
      <feComposite
         id="feComposite6709"
         in2="result1"
         operator="in"
         in="result3"
         result="result2" />
      <feComposite
         id="feComposite6711"
         in2="result1"
         result="result5"
         operator="arithmetic"
         k1="1.7" />
      <feBlend
         id="feBlend6713"
         in2="result3"
         in="result5"
         mode="normal" />
    </filter>
    <pattern
       patternUnits="userSpaceOnUse"
       width="102.82308"
       height="126.92488"
       patternTransform="translate(-246.54994,84.228288)"
       id="pattern7986">
      <path
         transform="matrix(1.1145503,0,0,0.61032864,256.06019,-131.3527)"
         d="m -225,230.3125 a 1.25,14.0625 0 1 1 -2.5,0 1.25,14.0625 0 1 1 2.5,0 z"
         sodipodi:ry="14.0625"
         sodipodi:rx="1.25"
         sodipodi:cy="230.3125"
         sodipodi:cx="-226.25"
         id="path7231"
         style="fill:#217821;fill-opacity:1;fill-rule:nonzero;stroke:none"
         sodipodi:type="arc" />
      <path
         transform="matrix(1.1145503,0,0,0.61032864,251.06019,-120.1027)"
         d="m -202.5,270.625 a 1.5625,31.875 0 1 1 -3.125,0 1.5625,31.875 0 1 1 3.125,0 z"
         sodipodi:ry="31.875"
         sodipodi:rx="1.5625"
         sodipodi:cy="270.625"
         sodipodi:cx="-204.0625"
         id="path7236"
         style="fill:#217821;fill-opacity:1;fill-rule:nonzero;stroke:none"
         sodipodi:type="arc" />
      <path
         transform="matrix(1.1145503,0,0,0.61032864,274.18519,-113.2277)"
         d="m -182.5,230 a 1.25,26.875 0 1 1 -2.5,0 1.25,26.875 0 1 1 2.5,0 z"
         sodipodi:ry="26.875"
         sodipodi:rx="1.25"
         sodipodi:cy="230"
         sodipodi:cx="-183.75"
         id="path7238"
         style="fill:#217821;fill-opacity:1;fill-rule:nonzero;stroke:none"
         sodipodi:type="arc" />
      <path
         transform="matrix(1.1145503,0,0,0.61032864,272.93519,-101.3527)"
         d="m -207.5,195.625 a 1.875,26.25 0 1 1 -3.75,0 1.875,26.25 0 1 1 3.75,0 z"
         sodipodi:ry="26.25"
         sodipodi:rx="1.875"
         sodipodi:cy="195.625"
         sodipodi:cx="-209.375"
         id="path7240"
         style="fill:#217821;fill-opacity:1;fill-rule:nonzero;stroke:none"
         sodipodi:type="arc" />
      <path
         transform="matrix(1.1145503,0,0,0.61032864,274.18519,-109.4777)"
         d="m -171.25,290.3125 a 3.4375,2.8125 0 1 1 -6.875,0 3.4375,2.8125 0 1 1 6.875,0 z"
         sodipodi:ry="2.8125"
         sodipodi:rx="3.4375"
         sodipodi:cy="290.3125"
         sodipodi:cx="-174.6875"
         id="path7242"
         style="fill:#217821;fill-opacity:1;fill-rule:nonzero;stroke:none"
         sodipodi:type="arc" />
      <path
         transform="matrix(1.1145503,0,0,0.61032864,274.18519,-109.4777)"
         d="m -153.75,233.75 a 1.5625,40 0 1 1 -3.125,0 1.5625,40 0 1 1 3.125,0 z"
         sodipodi:ry="40"
         sodipodi:rx="1.5625"
         sodipodi:cy="233.75"
         sodipodi:cx="-155.3125"
         id="path7244"
         style="fill:#217821;fill-opacity:1;fill-rule:nonzero;stroke:none"
         sodipodi:type="arc" />
      <path
         transform="matrix(1.1145503,0,0,0.61032864,274.18519,-109.4777)"
         d="m -195,229.375 a 4.375,1.875 0 1 1 -8.75,0 4.375,1.875 0 1 1 8.75,0 z"
         sodipodi:ry="1.875"
         sodipodi:rx="4.375"
         sodipodi:cy="229.375"
         sodipodi:cx="-199.375"
         id="path7248"
         style="fill:#ccff00;fill-opacity:1;fill-rule:nonzero;stroke:none"
         sodipodi:type="arc" />
      <path
         transform="matrix(1.1145503,0,0,0.61032864,274.18519,-109.4777)"
         d="m -170,290.3125 a 4.6875,2.8125 0 1 1 -9.375,0 4.6875,2.8125 0 1 1 9.375,0 z"
         sodipodi:ry="2.8125"
         sodipodi:rx="4.6875"
         sodipodi:cy="290.3125"
         sodipodi:cx="-174.6875"
         id="path7250"
         style="fill:#ccff00;fill-opacity:1;fill-rule:nonzero;stroke:none"
         sodipodi:type="arc" />
      <path
         transform="matrix(1.1145503,0,0,0.61032864,274.18519,-109.4777)"
         d="m -179.375,182.1875 a 5.3125,2.8125 0 1 1 -10.625,0 5.3125,2.8125 0 1 1 10.625,0 z"
         sodipodi:ry="2.8125"
         sodipodi:rx="5.3125"
         sodipodi:cy="182.1875"
         sodipodi:cx="-184.6875"
         id="path7252"
         style="fill:#ccff00;fill-opacity:1;fill-rule:nonzero;stroke:none"
         sodipodi:type="arc" />
      <path
         transform="matrix(1.1145503,0,0,0.61032864,274.18519,-109.4777)"
         d="m -163.125,220.9375 a 4.0625,2.8125 0 1 1 -8.125,0 4.0625,2.8125 0 1 1 8.125,0 z"
         sodipodi:ry="2.8125"
         sodipodi:rx="4.0625"
         sodipodi:cy="220.9375"
         sodipodi:cx="-167.1875"
         id="path7254"
         style="fill:#ccff00;fill-opacity:1;fill-rule:nonzero;stroke:none"
         sodipodi:type="arc" />
      <path
         transform="matrix(1.1145503,0,0,0.61032864,274.18519,-109.4777)"
         d="m -229.375,263.125 a 4.6875,1.875 0 1 1 -9.375,0 4.6875,1.875 0 1 1 9.375,0 z"
         sodipodi:ry="1.875"
         sodipodi:rx="4.6875"
         sodipodi:cy="263.125"
         sodipodi:cx="-234.0625"
         id="path7256"
         style="fill:#ccff00;fill-opacity:1;fill-rule:nonzero;stroke:none"
         sodipodi:type="arc" />
      <path
         transform="matrix(1.1145503,0,0,0.61032864,269.18519,-105.7277)"
         d="m -212.5,185.3125 a 7.5,1.5625 0 1 1 -15,0 7.5,1.5625 0 1 1 15,0 z"
         sodipodi:ry="1.5625"
         sodipodi:rx="7.5"
         sodipodi:cy="185.3125"
         sodipodi:cx="-220"
         id="path7258"
         style="fill:#ccff00;fill-opacity:1;fill-rule:nonzero;stroke:none"
         sodipodi:type="arc" />
      <path
         transform="matrix(1.1145503,0,0,0.61032864,289.18519,-116.9777)"
         d="m -187.5,267.1875 a 2.5,2.1875 0 1 1 -5,0 2.5,2.1875 0 1 1 5,0 z"
         sodipodi:ry="2.1875"
         sodipodi:rx="2.5"
         sodipodi:cy="267.1875"
         sodipodi:cx="-190"
         id="path7260"
         style="fill:#ccff00;fill-opacity:1;fill-rule:nonzero;stroke:none"
         sodipodi:type="arc" />
      <path
         transform="matrix(1.1145503,0,0,0.61032864,274.18519,-109.4777)"
         d="m -233.125,220.625 a 4.0625,1.875 0 1 1 -8.125,0 4.0625,1.875 0 1 1 8.125,0 z"
         sodipodi:ry="1.875"
         sodipodi:rx="4.0625"
         sodipodi:cy="220.625"
         sodipodi:cx="-237.1875"
         id="path7264"
         style="fill:#ccff00;fill-opacity:1;fill-rule:nonzero;stroke:none"
         sodipodi:type="arc" />
      <path
         transform="translate(237.17494,-90.478288)"
         d="m -194.375,145.625 a 5,3.125 0 1 1 -10,0 5,3.125 0 1 1 10,0 z"
         sodipodi:ry="3.125"
         sodipodi:rx="5"
         sodipodi:cy="145.625"
         sodipodi:cx="-199.375"
         id="path7807"
         style="fill:#ddff55;fill-opacity:1;fill-rule:nonzero;stroke:none"
         sodipodi:type="arc" />
      <path
         sodipodi:type="arc"
         style="fill:#217821;fill-opacity:1;fill-rule:nonzero;stroke:none"
         id="path7919"
         sodipodi:cx="-226.25"
         sodipodi:cy="230.3125"
         sodipodi:rx="1.25"
         sodipodi:ry="14.0625"
         d="m -225,230.3125 a 1.25,14.0625 0 1 1 -2.5,0 1.25,14.0625 0 1 1 2.5,0 z"
         transform="matrix(1.1145503,0,0,0.61032864,253.56019,-73.8527)" />
      <path
         sodipodi:type="arc"
         style="fill:#217821;fill-opacity:1;fill-rule:nonzero;stroke:none"
         id="path7921"
         sodipodi:cx="-204.0625"
         sodipodi:cy="270.625"
         sodipodi:rx="1.5625"
         sodipodi:ry="31.875"
         d="m -202.5,270.625 a 1.5625,31.875 0 1 1 -3.125,0 1.5625,31.875 0 1 1 3.125,0 z"
         transform="matrix(1.1145503,0,0,0.61032864,248.56019,-62.6027)" />
      <path
         sodipodi:type="arc"
         style="fill:#217821;fill-opacity:1;fill-rule:nonzero;stroke:none"
         id="path7923"
         sodipodi:cx="-183.75"
         sodipodi:cy="230"
         sodipodi:rx="1.25"
         sodipodi:ry="26.875"
         d="m -182.5,230 a 1.25,26.875 0 1 1 -2.5,0 1.25,26.875 0 1 1 2.5,0 z"
         transform="matrix(1.1145503,0,0,0.61032864,271.68519,-55.7277)" />
      <path
         sodipodi:type="arc"
         style="fill:#217821;fill-opacity:1;fill-rule:nonzero;stroke:none"
         id="path7925"
         sodipodi:cx="-209.375"
         sodipodi:cy="195.625"
         sodipodi:rx="1.875"
         sodipodi:ry="26.25"
         d="m -207.5,195.625 a 1.875,26.25 0 1 1 -3.75,0 1.875,26.25 0 1 1 3.75,0 z"
         transform="matrix(1.1145503,0,0,0.61032864,270.43519,-43.8527)" />
      <path
         sodipodi:type="arc"
         style="fill:#217821;fill-opacity:1;fill-rule:nonzero;stroke:none"
         id="path7927"
         sodipodi:cx="-174.6875"
         sodipodi:cy="290.3125"
         sodipodi:rx="3.4375"
         sodipodi:ry="2.8125"
         d="m -171.25,290.3125 a 3.4375,2.8125 0 1 1 -6.875,0 3.4375,2.8125 0 1 1 6.875,0 z"
         transform="matrix(1.1145503,0,0,0.61032864,271.68519,-51.9777)" />
      <path
         sodipodi:type="arc"
         style="fill:#217821;fill-opacity:1;fill-rule:nonzero;stroke:none"
         id="path7929"
         sodipodi:cx="-155.3125"
         sodipodi:cy="233.75"
         sodipodi:rx="1.5625"
         sodipodi:ry="40"
         d="m -153.75,233.75 a 1.5625,40 0 1 1 -3.125,0 1.5625,40 0 1 1 3.125,0 z"
         transform="matrix(1.1145503,0,0,0.61032864,271.68519,-51.9777)" />
      <path
         sodipodi:type="arc"
         style="fill:#ccff00;fill-opacity:1;fill-rule:nonzero;stroke:none"
         id="path7931"
         sodipodi:cx="-199.375"
         sodipodi:cy="229.375"
         sodipodi:rx="4.375"
         sodipodi:ry="1.875"
         d="m -195,229.375 a 4.375,1.875 0 1 1 -8.75,0 4.375,1.875 0 1 1 8.75,0 z"
         transform="matrix(1.1145503,0,0,0.61032864,271.68519,-51.9777)" />
      <path
         sodipodi:type="arc"
         style="fill:#ccff00;fill-opacity:1;fill-rule:nonzero;stroke:none"
         id="path7933"
         sodipodi:cx="-174.6875"
         sodipodi:cy="290.3125"
         sodipodi:rx="4.6875"
         sodipodi:ry="2.8125"
         d="m -170,290.3125 a 4.6875,2.8125 0 1 1 -9.375,0 4.6875,2.8125 0 1 1 9.375,0 z"
         transform="matrix(1.1145503,0,0,0.61032864,271.68519,-51.9777)" />
      <path
         sodipodi:type="arc"
         style="fill:#ccff00;fill-opacity:1;fill-rule:nonzero;stroke:none"
         id="path7935"
         sodipodi:cx="-184.6875"
         sodipodi:cy="182.1875"
         sodipodi:rx="5.3125"
         sodipodi:ry="2.8125"
         d="m -179.375,182.1875 a 5.3125,2.8125 0 1 1 -10.625,0 5.3125,2.8125 0 1 1 10.625,0 z"
         transform="matrix(1.1145503,0,0,0.61032864,271.68519,-51.9777)" />
      <path
         sodipodi:type="arc"
         style="fill:#ccff00;fill-opacity:1;fill-rule:nonzero;stroke:none"
         id="path7937"
         sodipodi:cx="-167.1875"
         sodipodi:cy="220.9375"
         sodipodi:rx="4.0625"
         sodipodi:ry="2.8125"
         d="m -163.125,220.9375 a 4.0625,2.8125 0 1 1 -8.125,0 4.0625,2.8125 0 1 1 8.125,0 z"
         transform="matrix(1.1145503,0,0,0.61032864,271.68519,-51.9777)" />
      <path
         sodipodi:type="arc"
         style="fill:#ccff00;fill-opacity:1;fill-rule:nonzero;stroke:none"
         id="path7939"
         sodipodi:cx="-234.0625"
         sodipodi:cy="263.125"
         sodipodi:rx="4.6875"
         sodipodi:ry="1.875"
         d="m -229.375,263.125 a 4.6875,1.875 0 1 1 -9.375,0 4.6875,1.875 0 1 1 9.375,0 z"
         transform="matrix(1.1145503,0,0,0.61032864,271.68519,-51.9777)" />
      <path
         sodipodi:type="arc"
         style="fill:#ccff00;fill-opacity:1;fill-rule:nonzero;stroke:none"
         id="path7941"
         sodipodi:cx="-220"
         sodipodi:cy="185.3125"
         sodipodi:rx="7.5"
         sodipodi:ry="1.5625"
         d="m -212.5,185.3125 a 7.5,1.5625 0 1 1 -15,0 7.5,1.5625 0 1 1 15,0 z"
         transform="matrix(1.1145503,0,0,0.61032864,266.68519,-48.2277)" />
      <path
         sodipodi:type="arc"
         style="fill:#ccff00;fill-opacity:1;fill-rule:nonzero;stroke:none"
         id="path7943"
         sodipodi:cx="-190"
         sodipodi:cy="267.1875"
         sodipodi:rx="2.5"
         sodipodi:ry="2.1875"
         d="m -187.5,267.1875 a 2.5,2.1875 0 1 1 -5,0 2.5,2.1875 0 1 1 5,0 z"
         transform="matrix(1.1145503,0,0,0.61032864,286.68519,-59.4777)" />
      <path
         sodipodi:type="arc"
         style="fill:#ccff00;fill-opacity:1;fill-rule:nonzero;stroke:none"
         id="path7945"
         sodipodi:cx="-237.1875"
         sodipodi:cy="220.625"
         sodipodi:rx="4.0625"
         sodipodi:ry="1.875"
         d="m -233.125,220.625 a 4.0625,1.875 0 1 1 -8.125,0 4.0625,1.875 0 1 1 8.125,0 z"
         transform="matrix(1.1145503,0,0,0.61032864,271.68519,-51.9777)" />
      <path
         sodipodi:type="arc"
         style="fill:#ddff55;fill-opacity:1;fill-rule:nonzero;stroke:none"
         id="path7947"
         sodipodi:cx="-199.375"
         sodipodi:cy="145.625"
         sodipodi:rx="5"
         sodipodi:ry="3.125"
         d="m -194.375,145.625 a 5,3.125 0 1 1 -10,0 5,3.125 0 1 1 10,0 z"
         transform="translate(234.67494,-32.978288)" />
    </pattern>
    <filter
       id="filter8131"
       y="-0.15"
       height="1.3"
       x="-0.15"
       width="1.3"
       inkscape:menu-tooltip="Aquarelle paper effect which can be used for pictures as for objects"
       inkscape:menu="Textures"
       inkscape:label="Rough paper"
       color-interpolation-filters="sRGB">
      <feTurbulence
         id="feTurbulence8133"
         type="fractalNoise"
         baseFrequency="0.04"
         numOctaves="5"
         seed="0"
         result="result4" />
      <feDisplacementMap
         id="feDisplacementMap8135"
         in2="result4"
         in="SourceGraphic"
         yChannelSelector="G"
         xChannelSelector="R"
         scale="10"
         result="result3" />
      <feDiffuseLighting
         id="feDiffuseLighting8137"
         lighting-color="rgb(233,230,215)"
         diffuseConstant="1"
         surfaceScale="2"
         result="result1"
         in="result4">
        <feDistantLight
           id="feDistantLight8139"
           azimuth="235"
           elevation="40" />
      </feDiffuseLighting>
      <feComposite
         id="feComposite8141"
         in2="result1"
         operator="in"
         in="result3"
         result="result2" />
      <feComposite
         id="feComposite8143"
         in2="result1"
         result="result5"
         operator="arithmetic"
         k1="1.7" />
      <feBlend
         id="feBlend8145"
         in2="result3"
         in="result5"
         mode="normal" />
    </filter>
    <filter
       id="filter8147"
       y="-0.15"
       height="1.3"
       x="-0.15"
       width="1.3"
       inkscape:menu-tooltip="Aquarelle paper effect which can be used for pictures as for objects"
       inkscape:menu="Textures"
       inkscape:label="Rough paper"
       color-interpolation-filters="sRGB">
      <feTurbulence
         id="feTurbulence8149"
         type="fractalNoise"
         baseFrequency="0.04"
         numOctaves="5"
         seed="0"
         result="result4" />
      <feDisplacementMap
         id="feDisplacementMap8151"
         in2="result4"
         in="SourceGraphic"
         yChannelSelector="G"
         xChannelSelector="R"
         scale="10"
         result="result3" />
      <feDiffuseLighting
         id="feDiffuseLighting8153"
         lighting-color="rgb(233,230,215)"
         diffuseConstant="1"
         surfaceScale="2"
         result="result1"
         in="result4">
        <feDistantLight
           id="feDistantLight8155"
           azimuth="235"
           elevation="40" />
      </feDiffuseLighting>
      <feComposite
         id="feComposite8157"
         in2="result1"
         operator="in"
         in="result3"
         result="result2" />
      <feComposite
         id="feComposite8159"
         in2="result1"
         result="result5"
         operator="arithmetic"
         k1="1.7" />
      <feBlend
         id="feBlend8161"
         in2="result3"
         in="result5"
         mode="normal" />
    </filter>
  </defs>
  <sodipodi:namedview
     pagecolor="#ffffff"
     bordercolor="#666666"
     borderopacity="1.0"
     inkscape:pageopacity="0.0"
     inkscape:pageshadow="2"
     inkscape:zoom="0.8"
     inkscape:cx="210.82749"
     inkscape:cy="207.33353"
     inkscape:document-units="pt"
     inkscape:current-layer="layer1"
     id="namedview6672"
     showgrid="false"
     inkscape:window-width="1176"
     inkscape:window-height="756"
     inkscape:window-x="108"
     inkscape:window-y="0"
     inkscape:window-maximized="0" />
  <metadata
     id="metadata6674">
    <rdf:RDF>
      <cc:Work
         rdf:about="">
        <dc:format>image/svg+xml</dc:format>
        <dc:type
           rdf:resource="http://purl.org/dc/dcmitype/StillImage" />
        <dc:title></dc:title>
      </cc:Work>
    </rdf:RDF>
  </metadata>
  <g
     inkscape:groupmode="layer"
     id="layer2"
     inkscape:label="Layer">
    <rect
       style="fill:none;fill-opacity:1;fill-rule:nonzero;stroke:none"
       id="rect7982"
       width="497.5"
       height="112.5"
       x="-71.25"
       y="-136.25" />
  </g>
  <g
     inkscape:label="Layer 1"
     inkscape:groupmode="layer"
     id="layer1">
    <rect
       style="fill:#deaa87;fill-opacity:1;fill-rule:nonzero;stroke:none;filter:url(#filter8147)"
       id="rect6677"
       width="448.75"
       height="353.75"
       x="-4.25"
       y="81.25" />
    <path
       style="fill:#aade87;fill-opacity:1;fill-rule:nonzero;stroke:none;filter:url(#filter8131);opacity:1"
       d="M -11.25 -6.25 L -11.25 88.75 L 58.53125 88.75 C 60.273792 90.37131 61.70187 92.213903 63.75 93.75 C 68.964654 97.660991 75.343985 100.11466 82.5 102.5 C 89.486879 104.82896 113.28579 104.53579 117.5 108.75 C 120.44628 111.69628 125.83333 108.75 130 108.75 C 137.61581 108.75 148.55285 109.73679 152.5 108.75 C 160.38504 106.77874 171.02284 100.22716 175 96.25 C 176.10014 95.149864 183.71392 91.934625 191.84375 88.75 L 293.84375 88.75 C 304.67856 94.067083 315.5944 98.75 328.75 98.75 C 333.87967 98.75 356.08987 98.910129 357.5 97.5 C 361.5916 93.408402 371.11669 91.595827 377.5 90 C 381.65105 88.962237 386.13292 89.080265 390.46875 88.75 L 441.25 88.75 L 441.25 -6.25 L -11.25 -6.25 z "
       id="rect6681" />
    <rect
       style="stroke:none;fill:url(#pattern7986)"
       width="102.82308"
       height="126.92488"
       x="-246.54994"
       y="84.228288"
       id="rect8018" />
    <path
       style="fill:#89a02c;fill-opacity:1;stroke:#000000;stroke-width:0.99999994px;stroke-linecap:butt;stroke-linejoin:miter;stroke-opacity:1"
       d="M 371.33127,82.719952 C 367.95303,66.565048 354.45539,47.111123 336.1946,39.837325 c 10.93335,-1.435379 31.12313,16.811407 28.74519,0.706453 1.42009,-8.856027 -1.05348,-26.09155 3.86137,-8.398193 2.24246,9.473652 11.53835,9.157198 15.65379,0.655502 9.09022,-4.41828 8.06322,-19.630164 7.70075,-5.25631 -0.36912,10.166569 0.97236,25.709228 -0.81496,32.698294 5.62806,-5.006851 21.11235,-14.823627 10.91319,-2.147003 -3.77979,12.593855 -26.51624,16.143316 -31.01829,27.845495 l 0.0957,1.892108"
       id="path8071"
       inkscape:connector-curvature="0" />
    <path
       inkscape:connector-curvature="0"
       id="path8176"
       d="M 49.823655,8.464138 C 54.011528,21.978267 70.354373,34.649252 73.37753,42.318705 62.904428,48.185892 44.447088,20.919169 51.123836,44.371047 53.415175,50.608289 63.867975,64.512207 52.377985,54.967636 42.81979,42.20715 49.768431,93.43911 44.486713,73.084908 47.754853,54.731312 34.8474,43.03477 23.999419,59.44773 24.207462,51.003132 50.776831,32.916456 34.822309,31.616529 27.693036,36.238716 23.328168,38.96498 31.832006,30.513351 37.211782,21.386509 50.928358,11.580039 49.215151,4.651439 l 0.608504,3.812699 0,0 z"
       style="fill:#89a02c;fill-opacity:1;stroke:#000000;stroke-width:1px;stroke-linecap:butt;stroke-linejoin:miter;stroke-opacity:1" />
    <path
       inkscape:connector-curvature="0"
       id="path8180"
       d="m 282.41827,37.762425 c -33.9677,0.140946 -32.79396,-13.316771 -71.13659,-11.924318 -7.46148,-8.505214 42.04809,-1.375956 57.13296,-0.7823 16.42924,-7.43607 -54.05004,-11.268143 -33.46454,-15.43722 19.39733,1.544825 53.15555,6.763374 54.08381,8.533449 4.13779,-4.03321 23.49871,-18.914433 19.67129,-16.128356 1.87484,9.139087 7.54202,19.481137 -17.39908,27.222306 16.02975,-1.512059 39.94153,-10.144946 45.22822,-9.043823 -18.13413,6.704279 -38.41808,13.017775 -55.55771,19.877206 -10.02282,3.924919 -0.73779,-1.713634 1.44164,-2.316944 z"
       style="fill:#89a02c;fill-opacity:1;stroke:#000000;stroke-width:0.99999994px;stroke-linecap:butt;stroke-linejoin:miter;stroke-opacity:1" />
    <path
       sodipodi:type="spiral"
       style="fill:none;stroke:#7a4709;stroke-width:3.29284668;stroke-linecap:butt;stroke-linejoin:miter;stroke-miterlimit:4;stroke-opacity:1;stroke-dasharray:39.51415463, 39.51415463;stroke-dashoffset:0"
       id="path8202"
       sodipodi:cx="-347.5"
       sodipodi:cy="296.25"
       sodipodi:expansion="2.1300001"
       sodipodi:revolution="3.436954"
       sodipodi:radius="48.486763"
       sodipodi:argument="-16.471521"
       sodipodi:t0="0.20541449"
       d="m -346.06371,297.09305 c -0.12136,1.45666 -1.76059,2.14329 -3.04425,1.8964 -2.4062,-0.46278 -3.45879,-3.1924 -2.88527,-5.37681 0.9467,-3.60578 5.09497,-5.11406 8.43266,-4.07418 5.06304,1.57742 7.11803,7.48275 5.46655,12.23251 -2.3588,6.784 -10.36774,9.47821 -16.79379,7.06551 -8.77378,-3.29418 -12.2011,-13.76024 -8.87398,-22.13156 4.38651,-11.03683 17.66933,-15.29248 28.25917,-10.89464 13.57709,5.63841 18.75755,22.1031 13.12997,35.18857 -7.05226,16.39819 -27.06887,22.60107 -42.93064,15.5823 -19.50344,-8.63018 -26.82743,-32.57336 -18.25381,-51.49537 9.43321,-20.81914 34.09137,-30.18485 55.43366,-23.28255"
       transform="matrix(-3.699506,0,0,0.9738082,-1147.4554,93.196104)" />
    <path
       d="m -346.06371,297.09305 c -0.12135,1.45666 -1.76058,2.14329 -3.04425,1.89641 -2.40619,-0.46278 -3.45879,-3.1924 -2.88527,-5.37682 0.94669,-3.60578 5.09496,-5.11406 8.43265,-4.07419 5.06304,1.57741 7.11805,7.48274 5.46657,12.23251 -2.35879,6.78401 -10.36772,9.47823 -16.79378,7.06553 -8.7738,-3.29416 -12.20113,-13.76022 -8.87402,-22.13155 4.38649,-11.03684 17.66931,-15.29251 28.25916,-10.89469 13.57711,5.63839 18.7576,22.10308 13.13004,35.18857 -7.05223,16.39821 -27.06885,22.60112 -42.93064,15.58238 -2.00852,-0.88876 -3.93316,-1.96585 -5.74349,-3.20938"
       sodipodi:t0="0.23649108"
       sodipodi:argument="-16.471521"
       sodipodi:radius="35.917152"
       sodipodi:revolution="2.9853129"
       sodipodi:expansion="2.1300001"
       sodipodi:cy="296.25"
       sodipodi:cx="-347.5"
       id="path8208"
       style="fill:none;stroke:#7a4709;stroke-width:1.64166665;stroke-linecap:butt;stroke-linejoin:miter;stroke-miterlimit:4;stroke-opacity:1;stroke-dasharray:39.3999997, 39.3999997;stroke-dashoffset:0"
       sodipodi:type="spiral"
       transform="matrix(4.7088561,0,0,3.0780428,1918.659,-735.82998)" />
    <path
       sodipodi:type="spiral"
       style="fill:none;stroke:#000000;stroke-width:6.25;stroke-linecap:butt;stroke-linejoin:miter;stroke-opacity:1;stroke-miterlimit:4;stroke-dasharray:25,12.5;stroke-dashoffset:0"
       id="path8220"
       sodipodi:cx="-168.75"
       sodipodi:cy="317.5"
       sodipodi:expansion="2.1300001"
       sodipodi:revolution="4.784214"
       sodipodi:radius="132.7886"
       sodipodi:argument="-28.093067"
       sodipodi:t0="0.26088029"
       d="m -167.47077,310.01966 c 5.3534,-0.51464 9.48817,4.32035 9.75675,9.36763 0.40277,7.56867 -6.46156,13.28427 -13.65779,13.44386 -10.19149,0.22601 -17.77187,-9.06373 -17.75906,-18.81652 0.0174,-13.22972 12.13655,-22.96385 24.86111,-22.71304 16.69026,0.32896 28.87164,15.68855 28.31542,31.80686 -0.71016,20.57929 -19.72737,35.50554 -39.6675,34.57493 -24.90241,-1.16219 -42.87494,-24.25988 -41.49962,-48.45548 1.68619,-29.66478 29.29241,-50.98848 58.18225,-49.09692 34.87116,2.28318 59.85417,34.83076 57.37375,68.85838 -2.95412,40.52599 -40.88033,69.47947 -80.49371,66.33658 -46.63341,-3.69986 -79.87139,-47.44614 -75.99151,-93.09743 4.52122,-53.19735 54.53294,-91.03652 106.6782,-86.34429 60.221506,5.41896 102.981098,62.14518 97.400384,121.24418 -6.393792,67.70939 -70.287064,115.71105 -136.803114,109.16497 -9.93939,-0.97817 -19.76229,-3.09973 -29.22484,-6.29339" />
    <path
       inkscape:connector-curvature="0"
       id="path3060"
       d="m 223.91494,58.166005 c -44.16342,-3.07977 -97.34555,-15.38487 -117.23028,-32.03231 -3.92396,9.96738 45.95814,28.37336 1.93127,26.20552 -24.21015,1.29463 -71.32773,-0.96041 -22.95855,3.52021 25.89859,2.04434 25.03347,10.51892 1.79198,14.27077 -12.07846,8.28708 -53.66391,7.35081 -14.36943,7.02036 27.79285,-0.3365 70.28255,0.88645 89.38889,-0.74296 -13.68747,5.13083 -40.52405,19.24704 -5.86936,9.949 34.42843,-3.44585 44.13175,-24.17349 76.12256,-28.27778 l 5.17254,0.0872"
       style="fill:#89a02c;fill-opacity:1;stroke:#000000;stroke-width:1px;stroke-linecap:butt;stroke-linejoin:miter;stroke-opacity:1" />
  </g>
</svg>
